<svg id="Layer_1" data-name="Layer 1" xmlns="http://www.w3.org/2000/svg" viewBox="0 0 77.14683 78"><defs><style>.cls-1{fill:#6d6e71;stroke:#414042;stroke-miterlimit:10;}</style></defs><path class="cls-1" d="M46.86559,5.45167a.40362.40362,0,0,0,.05014-.0114,1.50037,1.50037,0,0,0,.338-.19907,2.28052,2.28052,0,0,1,1.397-.14882,31.869,31.869,0,0,0,4.77229-.32671,28.67607,28.67607,0,0,1,5.18838.18176c1.70093.1948,2.45861,1.304,3.23424,2.72366a40.69093,40.69093,0,0,0,2.9063,4.568,7.36209,7.36209,0,0,0,3.97919,2.86423c2.07738.7961,3.77312,2.42888,5.89651,3.09257a11.31314,11.31314,0,0,1,1.44919.46674A1.83977,1.83977,0,0,1,77.10911,19.723c.293.97626-1.09357,2.20152-1.57246,2.97082a8.38115,8.38115,0,0,0-1.63019,4.12137,9.25149,9.25149,0,0,0,.22938,1.97279c.62223,3.27915,1.46,6.51636,2.234,9.76194a3.431,3.431,0,0,0,.70709,1.62832c.303.31745.74518.54389.86875.965a1.53662,1.53662,0,0,1-.05168.79c-.4603,1.87992-.918,3.76038-1.39535,5.63608a5.327,5.327,0,0,1-.39638.88529c-.27449.59066-.58895,1.16593-.82023,1.773-1.74,4.56673-3.58537,9.09442-5.46529,13.60518-1.85886,4.46026-3.61332,8.74673-6.45739,12.71241a4.55246,4.55246,0,0,1-1.3355,1.34857c-.57277.32443-1.28821.10123-1.778.47638-.13072.10014-.42391.04633-.62153-.00977a10.069,10.069,0,0,1-1.85605-.60387c-2.69622-1.38069-5.79262-2.16722-8.58865-3.37008a150.09805,150.09805,0,0,1-13.39746-6.76848c-4.2073-2.20859-8.61435-3.99427-12.96547-5.886-3.62187-1.57465-7.24284-3.15462-10.80271-4.86613-1.84294-.886-3.66957-1.80662-5.46867-2.77883-1.3478-.72834-3.23524-1.16391-3.87984-2.70543A6.34528,6.34528,0,0,0,1.871,50.26532a2.30392,2.30392,0,0,1,.17563-.722,15.62578,15.62578,0,0,0,1.44651-3.61815A20.53791,20.53791,0,0,1,5.437,41.63862c4.15171-7.07039,7.08662-14.75854,11.20166-21.8567a1.75344,1.75344,0,0,0,.20474-.443c.55252-2.24886,1.896-4.1358,2.839-6.2903a7.94993,7.94993,0,0,0,2.73468-.80747c1.7527-.56743,3.54533-1.0125,5.32462-1.49656.78434-.21338,1.57414-.40817,2.36586-.59245a2.126,2.126,0,0,0,1.49576-1.153q1.45429-2.91312,2.88-5.84053c.11836-.24215.15783-.52312.27813-.764a1.60117,1.60117,0,0,1,2.01813-.88071c1.2467.37414,2.49647.75212,3.71005,1.2191a16.87841,16.87841,0,0,1,4.4301,1.96623A4.06155,4.06155,0,0,0,46.86559,5.45167ZM74.64013,20.5012c-1.36645-.912-2.848-1.71016-4.28168-2.51671-1.33133-.74894-2.79472-1.77962-4.35918-1.88434a2.79658,2.79658,0,0,1-1.71967-.76736,4.202,4.202,0,0,0-.91018-.6468c-1.52431-.707-3.05973-1.39062-4.59947-2.06363-.79431-.34716-1.63892-.59186-2.40289-.99314-1.58482-.83245-3.17979-1.63568-4.81723-2.36257-3.1255-1.3875-6.22962-2.82314-9.34509-4.23329-.44029-.19925-.88734-.38882-1.34407-.54548q-1.383-.47439-2.78124-.90388c-.5576-.17115-1.07757-.56241-1.85747-.28687q-2.81562,4.98641-5.25843,10.17146c-.74333,1.57132-1.52032,3.12123-2.15688,4.73948a15.691,15.691,0,0,1-2.42949,4.45685.4266.4266,0,0,0,.08929.721L34.609,30.737a34.75129,34.75129,0,0,1,4.2812,4.34683,13.61806,13.61806,0,0,1,2.50316,5.528,87.48625,87.48625,0,0,1,15.47655-.4746c.97354.04206,1.9459.15447,2.91383.27484.95877.11923,6.56215,1.42285,7.017.67046a1.52168,1.52168,0,0,0,.13711-.48909,6.47558,6.47558,0,0,1,.95607-1.785c.74486-1.29252.83379-2.83911,1.23128-4.2505.42853-1.52164.96293-3.02368,1.53218-4.49769C71.90115,26.83926,73.39423,23.72134,74.64013,20.5012Zm1.07148,23.63816a7.5165,7.5165,0,0,1-1.37877.04957c-1.12406-.17858-2.23795-.42109-3.35592-.63816-1.96411-.38133-3.914-.91093-5.89648-1.10095-7.363-.70576-14.44142-1.391-21.83888-.61894-3.63541.37945-6.75347.638-9.62889,3.101a1.921,1.921,0,0,0-.332,2.75365c.23033.36788.47481.72717.6968,1.09993a6.433,6.433,0,0,0,1.83366,2.02431c2.548,1.80431,4.5586,4.74438,6.643,7.0516,3.4965,3.87027,6.92936,7.813,10.56509,11.5542,2.07462,2.13479,4.2285,4.19784,6.49329,6.13042,2.86213,2.4423,5.34784-3.75327,6.20052-5.69834,2.32677-5.30764,4.71942-10.53839,6.6825-16.00081.56066-1.56008,1.10954-3.12434,1.67044-4.68432.48074-1.33706.7952-2.64535,1.1587-3.97074A7.03122,7.03122,0,0,1,75.71161,44.13936Zm-36.58355-3.359a3.23875,3.23875,0,0,1-.237-1.14109,4.09873,4.09873,0,0,0-1.03421-3.30709c-1.911-2.69762-4.7504-4.76734-7.18208-6.96843q-3.36394-3.045-6.57423-6.25407a13.55123,13.55123,0,0,1-2.349-3.1582c-.22313-.40282-1.991-3.3578-1.76869-3.65173a6.91416,6.91416,0,0,0-.76124,1.22246,20.15338,20.15338,0,0,0-.90508,2.08916,23.17777,23.17777,0,0,1-2.857,5.4525,13.33051,13.33051,0,0,0-2.04257,3.68854,21.86829,21.86829,0,0,1-1.76237,4.01713,68.83869,68.83869,0,0,0-3.08778,6.26859,13.62217,13.62217,0,0,1-1.438,2.9126A14.7286,14.7286,0,0,0,5.39007,45.434,11.35811,11.35811,0,0,0,4.248,49.40411a2.12605,2.12605,0,0,0,1.44289.80464A48.02957,48.02957,0,0,0,12.154,51.492a70.32554,70.32554,0,0,0,7.06883-.06157c4.40149-.09735,8.85985.30822,13.16963-.59085a.78619.78619,0,0,0,.51917-.261c.16331-.24153.02049-.56484-.12325-.81852-.6982-1.23228-1.91435-2.65035-1.50821-4.16489a3.65433,3.65433,0,0,1,1.5254-1.89571c1.48214-1.06269,2.89675-2.29987,4.77-2.55673C38.09865,41.071,38.60868,40.90454,39.12806,40.78035ZM6.40419,52.21251,6.36,52.39912c.23058.11016.458.22772.69223.32941,5.89163,2.55753,11.91561,5.15715,17.79638,7.86916,5.24953,2.42069,10.42725,4.99287,15.59785,7.57671,5.15376,2.57541,10.18852,5.2609,15.637,7.13778a8.7626,8.7626,0,0,0,.96142.1871c-1.5512-1.58658-2.894-2.99122-4.27244-4.35995-1.07593-1.0683-2.25382-2.03845-3.283-3.14816-1.4735-1.58888-2.87577-3.24591-4.26579-4.90947-1.42681-1.7076-2.956-3.31337-4.53925-4.87451-.731-.72083-1.36761-1.53659-2.06191-2.29567q-1.58718-1.73531-3.19658-3.45018a1.53571,1.53571,0,0,0-1.626-.47639c-.31383.08556-.64958.1028-.95291.21291-2.183.79238-4.474.70772-6.737.8507a6.16916,6.16916,0,0,1-1.13683.03506,71.38394,71.38394,0,0,0-10.715-.08617,22.404,22.404,0,0,1-4.20913-.22643c-.90913-.14855-1.80933-.35122-2.71732-.50758A7.68863,7.68863,0,0,0,6.40419,52.21251ZM29.8815,12.22391a.67665.67665,0,0,0-.401-.1366,39.88435,39.88435,0,0,0-7.16588,1.80044c-2.31427.95327,1.88675,7.88761,2.56925,7.36372.23406-.17967.30231-.91213.46182-1.18024a10.7775,10.7775,0,0,1,1.413-1.47313c.362-.40523,2.93582-6.50743,3.18-6.33622C29.92231,12.25044,29.903,12.23747,29.8815,12.22391ZM69.4074,41.74947a.57643.57643,0,0,0,.36248.21627,21.13469,21.13469,0,0,0,4.33981.73631,1.1123,1.1123,0,0,0,.56718-.07238c.88027-.44729.57831-2.24714.34949-2.95164a43.96759,43.96759,0,0,1-1.68485-6.76735c-.05837-.37194-.4342-1.5601-.96067-1.54-.42742.01636-.96906,1.94314-1.10853,2.32483a58.82069,58.82069,0,0,0-1.8768,7.76275.49575.49575,0,0,0-.013.23016A.25784.25784,0,0,0,69.4074,41.74947ZM62.9,12.81124c-.69138-1.30765-1.4754-2.56258-2.263-3.81365C59.9989,7.984,59.50463,6.97712,58.26425,6.65606a15.81793,15.81793,0,0,0-4.53333-.4518,20.60189,20.60189,0,0,0-2.3693.22856c-.04922.00754-1.67163.31489-1.39662.492a55.26177,55.26177,0,0,0,5.77343,2.91749C57.92643,10.91445,60.4241,12.60454,62.9,12.81124Z" transform="translate(-1.33306 -0.92602)"/><path class="cls-1" d="M39.21058,22.57556c1.2618.105,2.38848.18783,3.51187.30265a2.11,2.11,0,0,1,.59689.27451c.14848.53683.29083,1.05163.42353,1.53143.82457.66393,1.94851.73807,2.6163,1.511-.09724.38251-.34625.33485-.54141.30119-.90558-.15619-1.81663-.29645-2.70816-.5142-.98761-.24122-1.08534-.41931-1.21333-1.5975a2.02538,2.02538,0,0,0-.156-.39559,4.476,4.476,0,0,0-1.67273-.03608c-.43142-.01-.86544.07765-1.29626.06276-.82135-.02836-1.06115-.27169-1.12958-1.06037a3.167,3.167,0,0,1-.00072-.32554c.02-1.20609-.31757-1.48349-1.62442-1.32448a5.48474,5.48474,0,0,0-2.612.80881.47211.47211,0,0,1-.70981-.08281.57884.57884,0,0,1,.10978-.85858A5.21632,5.21632,0,0,1,35.301,20.06588a8.16082,8.16082,0,0,1,1.46022-.07551,1.92248,1.92248,0,0,1,2.17372,1.54982A10.58606,10.58606,0,0,1,39.21058,22.57556Z" transform="translate(-1.33306 -0.92602)"/><path class="cls-1" d="M58.57379,31.15358a19.451,19.451,0,0,0-3.70841-1.21026c-2.01708-.40788-4.00773-.94653-6.00931-1.43094-.10351-.02505-.24971-.02884-.29814-.09747a1.86837,1.86837,0,0,1-.3692-.67932c-.05364-.30139.19679-.48566.46627-.5776a1.12976,1.12976,0,0,1,.47329-.05945,4.96884,4.96884,0,0,1,.9614.16978c3.04891.97217,6.21,1.56619,9.20093,2.73531.45332.17717.94372.25815,1.40143.426a1.22529,1.22529,0,0,1,.6609.4229,1.31345,1.31345,0,0,1,.08376.90465.59946.59946,0,0,1-.802.36593C59.93263,31.837,59.259,31.481,58.57379,31.15358Z" transform="translate(-1.33306 -0.92602)"/><path class="cls-1" d="M60.45649,23.82216c-.93653-.35835-1.99431-.77878-3.06347-1.168-1.17186-.4266-2.33629-.89117-3.53775-1.21317a26.938,26.938,0,0,0-2.8797-.45079.78558.78558,0,0,1-.72237-.74338.86.86,0,0,1,.83335-.83155,2.14714,2.14714,0,0,1,.48.05959,35.87573,35.87573,0,0,1,5.926,1.729c1.45042.59451,2.95325,1.06123,4.43315,1.58365.153.054.31383.08838.46211.1525a.9671.9671,0,0,1,.56386,1.05712.82534.82534,0,0,1-1.05336.50041A14.90415,14.90415,0,0,1,60.45649,23.82216Z" transform="translate(-1.33306 -0.92602)"/><path class="cls-1" d="M50.75779,33.17724a5.12635,5.12635,0,0,1,.31438.67776.99065.99065,0,0,0,.6568.659c.76066.27956,1.5152.58053,2.28879.819A16.16107,16.16107,0,0,1,57.55147,36.878c-.01724.5221-.38592.53531-.69.47344-1.11163-.22612-2.218-.48154-3.31882-.75613-.68119-.16991-1.34668-.40176-2.02292-.59273a3.33144,3.33144,0,0,1-2.316-1.73142,3.00728,3.00728,0,0,1-2.61055-.683c.27256-.2171.48041-.49679.74682-.57373A7.35654,7.35654,0,0,1,50.75779,33.17724Z" transform="translate(-1.33306 -0.92602)"/><path class="cls-1" d="M39.67786,14.62013c.92664-.23567,1.705-.44757,2.49077-.6266.31307-.07135.6547-.11654.86558.24323a.86291.86291,0,0,1-.03882,1.06052,8.81156,8.81156,0,0,1-.73334.70294c-.20436-.02456-.46435.02-.61333-.0883a1.38713,1.38713,0,0,0-1.24361-.15237,9.369,9.369,0,0,1-.938.2681c-1.06618.14591-1.46971-.29484-1.30975-1.37138.05405-.36376.074-.7326.1226-1.23339-.3498.02028-.59355.02488-.835.051-.26033.02818-.51846.07657-.75288.11238-.08187-.15908-.18831-.281-.16179-.32831a3.59014,3.59014,0,0,1,.52621-.79516,1.51554,1.51554,0,0,1,1.63825-.45307,1.57633,1.57633,0,0,1,.93244,1.42687C39.66019,13.75842,39.6565,14.084,39.67786,14.62013Z" transform="translate(-1.33306 -0.92602)"/><path class="cls-1" d="M42.18972,31.2116c-.57323.10893-.98346.21933-1.40031.25766a.85742.85742,0,0,1-.94987-.69925c-.02837-.10191-.01341-.21527-.03626-.31943-.29261-1.3347-.29338-1.33469-1.65285-1.44113-.05361-.00417-.10852.00549-.16168-.00091a.7569.7569,0,0,1-.7091-.72761.77352.77352,0,0,1,.74372-.71644,3.167,3.167,0,0,1,2.6935,1.22587c.22014.30031.38925.638.58392.96233a14.29617,14.29617,0,0,1,1.4285.28567.99268.99268,0,0,1,.73416,1.25215c-.02794.15822-.09442.30928-.137.46528-.09835.35994-.19288.72093-.28215,1.056-.52929.2348-.77339.00415-.84121-.43762A9.12582,9.12582,0,0,1,42.18972,31.2116Z" transform="translate(-1.33306 -0.92602)"/><path class="cls-1" d="M47.072,15.70206a2.25517,2.25517,0,0,1,.982,2.23942c.38361.30806.78038.62669,1.16563.93609-.11245.18491-.15061.33424-.22244.35272a7.532,7.532,0,0,1-2.98717.0821l-.13708-1.34982a8.4746,8.4746,0,0,1-.91581-.71832.629.629,0,0,1,.18832-.97058C45.75686,16.06008,46.38757,15.90162,47.072,15.70206Z" transform="translate(-1.33306 -0.92602)"/></svg>