<svg id="Layer_1" data-name="Layer 1" xmlns="http://www.w3.org/2000/svg" viewBox="0 0 66.53379 75"><defs><style>.cls-1{fill:#414042;}</style></defs><path class="cls-1" d="M38.03317,77.29265c-.53314-.70967-.92647-1.2036-1.28771-1.72-.85167-1.21743-1.90581-2.2816-2.682-3.5568a7.881,7.881,0,0,0-.74206-1.01873A9.65022,9.65022,0,0,1,31.92155,68.648a40.14108,40.14108,0,0,0-2.81162-4.97343c-.15879-.25-.3937-.673-.52864-.93662A35.96024,35.96024,0,0,0,25.888,58.42176c-.54725-.77558-1.05518-1.57736-1.53862-2.39421-.43-.72658-.94927-1.4016-1.364-2.136-1.42708-2.52746-3.20781-4.84013-4.47641-7.46668-.49909-1.03332-1.17505-1.98025-1.75085-2.97784-.592-1.02556-1.15136-2.06988-1.73146-3.1023-1.00672-1.79166-2.01717-3.58126-2.99641-5.38808a25.03355,25.03355,0,0,1-2.30014-4.89218,4.88276,4.88276,0,0,0-.34709-.75784,9.61688,9.61688,0,0,1-1.02861-2.53216,8.39493,8.39493,0,0,0-.37482-.87184A2.76924,2.76924,0,0,1,9.088,22.51476a10.32432,10.32432,0,0,1,2.483-1.62188,10.94416,10.94416,0,0,0,1.9071-1.21544c1.03141-.74237,2.02194-1.54188,3.0589-2.27609,1.195-.84617,2.42182-1.64755,3.65485-2.48193-.19336-.72594-.20926-1.48717-.89573-2.00364-.2588-.19469-.17055-.73877.12222-.95936a12.72759,12.72759,0,0,1,3.13545-2.125,9.16632,9.16632,0,0,0,3.00751-1.88,15.04386,15.04386,0,0,1,4.72419-2.95762,10.98228,10.98228,0,0,1,4.03359-.72935c.29618.5254.35451,1.27475,1.10094,1.6282a16.47475,16.47475,0,0,0,1.54815-1.00309A15.3602,15.3602,0,0,1,38.602,3.92048c.63813-.31738,1.30664-.57567,1.97027-.83859a1.44108,1.44108,0,0,1,.6845-.13983,2.66928,2.66928,0,0,0,1.2852-.16727,3.3013,3.3013,0,0,1,2.9585.42884A4.696,4.696,0,0,1,46.99693,4.654a14.23223,14.23223,0,0,0,1.18325,1.55473,14.219,14.219,0,0,1,2.05224,3.202,28.86759,28.86759,0,0,0,2.54713,4.30856,38.835,38.835,0,0,1,2.49576,4.47729c.851,1.63455,1.6762,3.28263,2.53857,4.911.35845.67685.77014,1.32321,1.191,1.96314a52.04351,52.04351,0,0,1,2.73631,5.217,18.5784,18.5784,0,0,1,1.16747,2.86378c.09431.30218.17625.60825.26385.91253a14.12266,14.12266,0,0,0,.40162,1.36974q1.24425,3.09661,2.531,6.17608a8.732,8.732,0,0,0,.51064.94175c.11762.20671.26306.39843.371.60965C68.4856,46.095,70.006,49.0174,71.592,51.90529a3.5817,3.5817,0,0,0,.34359.62683,8.92749,8.92749,0,0,1,1.6213,3.41611,6.58058,6.58058,0,0,0,.50786,1.05775,1.90623,1.90623,0,0,1,.1315,1.59826,3.71953,3.71953,0,0,1-.98867,1.59787c-.71391.62945-1.40677,1.28318-2.12956,1.90206-.66351.56812-1.35334,1.10559-2.0347,1.65269a3.1738,3.1738,0,0,1-.57557.41908c-2.40047,1.15253-4.66943,2.54867-7.02637,3.78089-1.19775.6262-2.42432,1.19731-3.62243,1.82285-.70333.36722-1.363.8181-2.06672,1.1845-.73892.38473-1.51061.706-2.26157,1.06824-1.8622.89837-3.7189,1.80816-5.5818,2.70508-.60785.29265-1.24762.52369-1.8386.8457a21.86007,21.86007,0,0,1-4.0965,1.60916,12.11368,12.11368,0,0,1-2.82309.4002A3.3114,3.3114,0,0,1,38.03317,77.29265Zm.31037-67.2701a3.898,3.898,0,0,1-1.58583,1.218,21.33887,21.33887,0,0,0-2.92978,1.59358A40.86051,40.86051,0,0,1,29.786,15.33508a8.18128,8.18128,0,0,0-.89823.60146c-.77654.552-1.52388,1.14976-2.32892,1.65607-1.58148.99461-3.192,1.94327-4.79534,2.90278-.4958.29671-.87187.14679-1.10672-.41439-.04539-.10843-.08158-.2207-.13333-.36209a5.73563,5.73563,0,0,0-1.87295,1.43447c-.68528.60016-1.34317,1.23146-2.01806,1.84361-.26495.2403-.54324.46591-.81634.69719a1.47233,1.47233,0,0,0-.518,1.605,8.754,8.754,0,0,0,.674,1.89683,40.63755,40.63755,0,0,1,2.14594,4.1122c.22011.53194.47245,1.04989.72594,1.56677.81492,1.6617,1.6097,3.33392,2.44927,4.98325a54.36187,54.36187,0,0,0,3.49156,6.238c.98945,1.43892,2.09672,2.79616,3.12186,4.2113a61.8381,61.8381,0,0,1,4.7706,6.80455,4.47136,4.47136,0,0,0,.26533.42513c1.21572,1.67221,2.38694,3.37931,3.661,5.00588A47.25131,47.25131,0,0,1,40.33933,66.212a12.29828,12.29828,0,0,0,.78049,1.199A1.82747,1.82747,0,0,0,42.84,67.817a72.17551,72.17551,0,0,0,7.26074-4.091c.49478-.32868,1.00516-.63455,1.51557-.93883q.9586-.57147,1.92219-1.1346c.43154-.25142,1.15118-.63818,1.60024-.85676,1.10829-.53947,2.22695-1.05846,3.32582-1.61644,1.84343-.936,3.67774-1.8901,5.51155-2.84491,1.12593-.58622,2.244-1.18751,3.36449-1.78413.03279-.01748.053-.05858.10574-.11947a2.9175,2.9175,0,0,0-.27147-1.7045,20.63819,20.63819,0,0,0-2.14379-3.84573c-.71733-1.00052-1.52947-1.93511-2.21553-2.95546-.86388-1.2848-1.6388-2.62927-2.45849-3.944-.69433-1.11368-1.358-2.2493-2.10639-3.32582a17.9583,17.9583,0,0,1-2.49682-5.252c-.24554-.83859-.42271-1.70367-.74283-2.51244a38.50471,38.50471,0,0,0-1.65371-3.69276c-.84625-1.61677-1.79841-3.17677-2.48635-4.876-.25287-.62464-.57461-1.22208-.87787-1.82542-.19491-.38773-.44336-.7507-.61468-1.14769-.29909-.69292-.53437-1.41361-.84008-2.10331a16.28406,16.28406,0,0,0-.78474-1.46863,11.06785,11.06785,0,0,1-.68313-1.11655,21.67171,21.67171,0,0,0-1.85905-3.42172,7.71634,7.71634,0,0,1-.53355-.9767c-.34108-.79808-.65282-1.60869-.997-2.40536a1.24319,1.24319,0,0,0-1.61026-.85637A3.31,3.31,0,0,0,40.04519,8.085a2.94189,2.94189,0,0,1-1.74367.81354c-.088.01656-.12217.12054-.18568.20594ZM36.07234,7.111a.53156.53156,0,0,0,.20226.41649c.62058.55548.86748.57052,1.55154.10964.16454-.11085.32038-.2915.49773-.3167a6.67748,6.67748,0,0,0,2.037-.95052,4.60127,4.60127,0,0,1,2.74828-.58585A1.70758,1.70758,0,0,1,44.6103,7.08763c.363,1.04788.79727,2.0715,1.21769,3.09868a3.99815,3.99815,0,0,0,.37729.60457c.25616.39936.539.78415.76461,1.2.51192.94347.95445,1.92675,1.50207,2.84814a25.00116,25.00116,0,0,1,1.57824,3.33856c.22541.54994.48069,1.08859.74317,1.62214.21023.42731.46423.833.6772,1.25908q1.3869,2.77482,2.75814,5.55745c.47238.96376.91039,1.94429,1.37466,2.9121a53.22938,53.22938,0,0,1,1.66153,5.08617,9.99673,9.99673,0,0,0,.62615,1.53419c1.09315,1.93227,2.2977,3.79641,3.54326,5.6342a9.30091,9.30091,0,0,1,.80537,1.3231,17.849,17.849,0,0,0,2.37279,3.56424,19.66263,19.66263,0,0,1,2.21977,3.23387c.24846.49129.61715.9203.89694,1.3977a4.65208,4.65208,0,0,1,.56064,1.17417c.20875.83931.33146,1.70005.49846,2.59948a6.05581,6.05581,0,0,1-.81234.41075,31.08757,31.08757,0,0,0-4.26344,1.83326c-1.20123.61632-2.389,1.25881-3.58275,1.88977-1.05077.55541-2.075,1.17055-3.1586,1.6521-1.56709.69639-3.05036,1.5405-4.53932,2.3787a10.93736,10.93736,0,0,0-2.03195,1.22407A16.60529,16.60529,0,0,1,47.469,66.27249c-.3753.2207-.73258.4718-1.10523.69728a17.5511,17.5511,0,0,1-4.50951,2.12878,4.47081,4.47081,0,0,1-.78412.0724c-1.089-1.74014-2.14455-3.4207-3.19264-5.10589-.27254-.43827-.51367-.896-.78391-1.3358a4.87193,4.87193,0,0,0-.66479-.97663,19.299,19.299,0,0,1-2.05511-2.4728c-.61087-.83184-1.22627-1.66037-1.83577-2.49324a5.17435,5.17435,0,0,1-.30958-.47875,50.07693,50.07693,0,0,0-3.55914-5.2433c-1.15054-1.52-2.2091-3.11963-3.46267-4.54863a26.009,26.009,0,0,1-2.83986-4.24965c-1.23367-2.131-2.32472-4.34532-3.45511-6.53518-.51059-.98912-.97117-2.0041-1.45124-3.00889-.47914-1.00282-.935-2.01728-1.436-3.009a30.26581,30.26581,0,0,1-1.91828-3.82327,2.01541,2.01541,0,0,1-.18856-.79,2.70257,2.70257,0,0,1,1.11107-2.13674,20.0615,20.0615,0,0,0,2.23118-1.787c.96159-.88511,1.86359-1.83495,2.77381-2.73981q.22517-.802.44878-1.60019c.05162-.18567.15248-.37785-.09153-.57831a3.471,3.471,0,0,0-1.63539.83218,24.17272,24.17272,0,0,0-2.40609,1.945,2.94676,2.94676,0,0,1-.69572.45385c-.23576.14632-.483.27575-.70974.43472a39.82512,39.82512,0,0,1-3.67366,2.43044c-1.11314.61022-2.52125,1.347-2.62563,2.62978-.01415.17381,2.34468,5.38257,2.69637,6.35195a11.166,11.166,0,0,0,.77945,1.46721c.11364.20853.23888.41112.345.62334A28.90655,28.90655,0,0,0,14.3426,36.843a11.09585,11.09585,0,0,1,1.20314,2.04748,12.73917,12.73917,0,0,0,.94234,1.77719c.101.16948.2007.33982.29657.51223.36579.658.71639,1.32492,1.09769,1.97377.5425.9232,1.12423,1.82359,1.65541,2.75307.29366.51382.48525,1.08621.78149,1.59829.517.89375,1.07309,1.76525,1.62382,2.63913,4.92325,7.81191,9.66123,15.768,14.59609,23.551a9.78278,9.78278,0,0,0,2.359,2.32746,1.07841,1.07841,0,0,0,.65382.24208,12.41561,12.41561,0,0,0,2.23792-.22679,13.28874,13.28874,0,0,0,2.238-.80789c1.675-.7316,3.3369-1.49352,4.99651-2.25966.97479-.45,1.93676-.92794,2.90126-1.4,1.28346-.62812,2.574-1.243,3.84231-1.90047,1.09341-.56677,2.15205-1.20038,3.2416-1.775.63183-.33319,1.30526-.58709,1.94-.91531s1.23975-.71344,1.86628-1.05826c1.64264-.904,3.29021-1.79906,4.93325-2.70238a6.76971,6.76971,0,0,0,.771-.51386,40.15954,40.15954,0,0,0,3.29834-2.739c1.00285-.98177,1.51652-1.376,1.02754-2.73286a36.97638,36.97638,0,0,0-1.681-3.87179c-3.06493-6.18285-7.76529-12.2544-9.12372-19.169a11.81846,11.81846,0,0,0-.87052-2.464c-.54608-1.23-1.13809-2.43968-1.7264-3.65072-.16444-.33852-.46328-.87586-.6656-1.19322a50.2412,50.2412,0,0,1-3.10445-5.31509,93.06839,93.06839,0,0,0-4.67743-8.44536c-.81058-1.32563-1.56836-2.672-2.29809-4.03992a15.55007,15.55007,0,0,0-1.01452-1.61207c-.41129-.58483-.86337-1.14108-1.301-1.7072A7.39323,7.39323,0,0,0,44.67894,4.11a1.91027,1.91027,0,0,0-1.813-.25478,6.8448,6.8448,0,0,1-1.96828.43832,5.09942,5.09942,0,0,0-1.03288.27764C39.16478,4.77527,36.09607,6.10485,36.07234,7.111ZM36.791,9.6537a7.3893,7.3893,0,0,0-1.56253-1.38724A1.72046,1.72046,0,0,1,34.265,6.98493a1.48017,1.48017,0,0,0-.11779-.33742A1.566,1.566,0,0,0,32.3064,5.52456a4.82871,4.82871,0,0,0-.925.213,15.40262,15.40262,0,0,0-4.77893,2.62289,18.37773,18.37773,0,0,1-3.96837,2.62541,7.84952,7.84952,0,0,0-2.04254,1.46392,2.97755,2.97755,0,0,1,.45007.58126c.10692.252.10547.54812.19708.80894a1.83649,1.83649,0,0,0,.33525.59585,1.49423,1.49423,0,0,1,.28289,1.90353,2.93859,2.93859,0,0,0-.15021,2.66013,4.12446,4.12446,0,0,0,.57212-.204c.91164-.48715,1.81253-.99441,2.72536-1.47928A16.35527,16.35527,0,0,0,27.37108,15.717c.78026-.60847,1.63731-1.12012,2.47247-1.656.56863-.36483,1.16058-.69314,1.7364-1.04705,1.08361-.666,2.17706-1.31754,3.239-2.01678A8.03174,8.03174,0,0,0,36.791,9.6537Z" transform="translate(-7.78107 -2.59425)"/><path class="cls-1" d="M28.08511,26.56025a6.81875,6.81875,0,0,0-.67085,1.8389,1.30967,1.30967,0,0,1-.6964,1.10277c-1.12475-.27476-1.50866-1.56282-2.58886-2.01-.802.17691-1.15579.85278-1.506,1.52-.16563.31555-.27158.662-.4303.98166a.57168.57168,0,0,1-1.08968-.24966,1.35716,1.35716,0,0,1,.17818-.66433c.29522-.4655.63008-.90712.96687-1.34458.217-.28191.48485-.52527.69615-.8109a1.41775,1.41775,0,0,1,1.93564-.2539c.27435.15591.51439.3711.77744.54837.22409.151.45877.28641.71706.44625.223-.49123.40918-.92779.61875-1.35284a3.66058,3.66058,0,0,1,.42963-.70987.83771.83771,0,0,1,1.3378-.09212c.26113.23776.50324.49642.793.78456a5.92682,5.92682,0,0,0,.488-.34055,1.84986,1.84986,0,0,0,.21325-.28582,13.05008,13.05008,0,0,1,1.49123-1.84771,8.88533,8.88533,0,0,1,1.947-1.13846c.9226-.459,1.87462-.85856,2.80765-1.29716a8.78653,8.78653,0,0,0,1.155-.61527c1.45084-.96982,2.889-1.95874,4.3279-2.94623a.54913.54913,0,0,1,.66-.02645.60694.60694,0,0,1,.22663.73476,1.39206,1.39206,0,0,1-.45535.52885c-1.674.9071-3.21927,2.02406-4.94069,2.86614a30.80076,30.80076,0,0,0-5.06583,2.872,6.575,6.575,0,0,0-1.09192,1.23876c-.26961.34092-.46669.74084-.74691,1.07139-.55271.652-.96717.68432-1.63555.16942C28.65764,27.06536,28.40015,26.82808,28.08511,26.56025Z" transform="translate(-7.78107 -2.59425)"/><path class="cls-1" d="M31.717,33.45791A2.95174,2.95174,0,0,0,31.1779,34.936c-.02481.19649-.003.40093-.04407.59284a.6677.6677,0,0,1-.61742.561.574.574,0,0,1-.53287-.28312c-.21208-.34137-.42982-.68036-.6211-1.03339a5.48925,5.48925,0,0,0-.89009-1.30882,3.97392,3.97392,0,0,0-.97831,1.77875c-.20009.68562-.39356,1.37347-.61276,2.053a.924.924,0,0,1-.31392.48144.68752.68752,0,0,1-.53782.03589.43963.43963,0,0,1-.156-.40061c.47832-1.38644.979-2.76518,1.48133-4.14321a1.74486,1.74486,0,0,1,.21814-.39081.92565.92565,0,0,1,.54726-.37737c1.40426-.32049,1.21787.7966,2.10486,1.11947.24933-.44055.4776-.876.73524-1.29274a.8287.8287,0,0,1,1.09552-.30109c.21866.12771.39426.32149.60117.469.56618.40362.8689.33912,1.25763-.27836.14738-.2341.23728-.50559.39293-.733a17.8269,17.8269,0,0,1,1.25125-1.72768,2.37007,2.37007,0,0,1,2.2104-.885,5.25435,5.25435,0,0,0,3.472-1.01788,31.45232,31.45232,0,0,0,2.7748-2.20067,9.07182,9.07182,0,0,0,1.33258-1.25554.47482.47482,0,0,1,.70639-.089.55117.55117,0,0,1,.10011.74572,1.29446,1.29446,0,0,1-.1532.18141c-.83141.73268-1.64516,1.48728-2.5041,2.1863a11.62268,11.62268,0,0,1-2.12693,1.51507,6.11417,6.11417,0,0,1-3.37727.98339,4.08135,4.08135,0,0,0-.59279.0215,1.6822,1.6822,0,0,0-1.3268.67879,10.48606,10.48606,0,0,0-1.39914,2.20324c-.06477.14456-.10859.3-.18539.43746-.45309.811-.88583.9524-1.77245.59286C32.39429,33.72384,32.06957,33.59766,31.717,33.45791Z" transform="translate(-7.78107 -2.59425)"/><path class="cls-1" d="M39.06337,38.157c.20386-.30427.37523-.56013.54668-.81593a9.85525,9.85525,0,0,1,1.70322-2.12912c.43192-.36716.54632-.36112,1.04691-.03954.76205.48957.90926.5,1.59088-.01949a8.64766,8.64766,0,0,0,.76226-.66391,38.74574,38.74574,0,0,1,4.34644-3.57049,1.52228,1.52228,0,0,1,.78321-.14013c.15693-.006.20066.102.43259.66052a2.72655,2.72655,0,0,1-1.46474.93247,6.21884,6.21884,0,0,0-1.97787,1.47586c-.63047.63578-1.27352,1.2593-1.92128,1.87754a3.16872,3.16872,0,0,1-.61.45693c-1.16649.66922-1.448.67056-2.683.02425a6.10857,6.10857,0,0,0-1.42424,1.97639c-.13516.24217-.21483.51609-.35626.75383a.88123.88123,0,0,1-1.48.24946c-.32036-.277-.61374-.58516-.96638-.92468a3.74333,3.74333,0,0,0-.66076,1.82732c-.08025.744-.22966,1.48053-.33386,2.12623a.89479.89479,0,0,1-1.09378.19055c-.48421-.27078-.95412-.56752-1.42532-.86092-.2296-.143-.44831-.30343-.73052-.49591a3.39491,3.39491,0,0,0-.42079,1.97317c.00361.35649.03479.71384.01717,1.069a.44877.44877,0,0,1-.45433.45775.44179.44179,0,0,1-.48969-.415,5.82428,5.82428,0,0,1-.09669-.94614,7.50994,7.50994,0,0,1,.75425-3.3073,1.81648,1.81648,0,0,1,1.59537.43818,2.69367,2.69367,0,0,0,1.31064.75941,1.86734,1.86734,0,0,0,.39517-1.11518,7.197,7.197,0,0,1,1.12558-2.73466.643.643,0,0,1,1.09725-.08615c.172.16469.31943.355.49213.51882C38.64231,37.82013,38.829,37.96116,39.06337,38.157Z" transform="translate(-7.78107 -2.59425)"/><path class="cls-1" d="M44.38176,45.96c1.19017-1.56649,3.00413-1.67348,4.40474-2.5529a8.15892,8.15892,0,0,1,2.50971-1.0005A3.84876,3.84876,0,0,0,54.07435,40.684a1.92414,1.92414,0,0,1,.35537-.47267.59072.59072,0,0,1,.96586.24376.75172.75172,0,0,1-.31717,1.01479c-.4587.28983-.7821.79742-1.24523,1.07567-.914.54912-2.03088.7669-2.91065,1.35294a6.174,6.174,0,0,1-2.60506,1.02021,10.96745,10.96745,0,0,0-1.30026.43683,2.991,2.991,0,0,0-1.9928,1.74088c-.03374.07171-.04653.15394-.08419.223a.67952.67952,0,0,1-1.23815.088c-.07366-.09078-.1057-.21428-.173-.31162a3.435,3.435,0,0,0-.26445-.29554,3.70563,3.70563,0,0,0-.5284,1.33127,1.78088,1.78088,0,0,1-.61735.99148.78607.78607,0,0,1-.89016.11644c-.36218-.21225-.79411-.31758-1.00735-.76531-.08228-.1728-.36251-.25132-.66268-.44318a14.15483,14.15483,0,0,0-.10617,2.59412,1.515,1.515,0,0,1,.00143.58387.517.517,0,0,1-.55281.36178.47527.47527,0,0,1-.44678-.32768.294.294,0,0,1-.043-.11015,10.03139,10.03139,0,0,1,.39261-4.00274,2.02461,2.02461,0,0,1,.15546-.32.568.568,0,0,1,.738-.1896c.36275.24159.69456.52907,1.04868.78434.24946.17981.51421.33839.85286.55907.14967-.32711.26391-.56131.36506-.801.23118-.54788.41829-1.11814.69255-1.64311.37133-.71082.85648-.72735,1.36781-.09329C44.11988,45.54489,44.19516,45.67955,44.38176,45.96Z" transform="translate(-7.78107 -2.59425)"/><path class="cls-1" d="M35.0717,50.8637c-.033-1.35022-.31142-2.6252.15885-3.85512.15511-.40568.32709-.8057.51222-1.1985.03942-.0836.16953-.12448.28532-.20387.075.12728.18342.2253.17921.31822a8.69434,8.69434,0,0,1-.12749,1.535,6.679,6.679,0,0,0,.17471,3.18089c.10638.42181.21266.84456.29275,1.2718a.93709.93709,0,0,1-.20345.78139.51662.51662,0,0,1-.81593.13606c-.3426-.27079-.675-.55561-.99936-.84807a2.29828,2.29828,0,0,0-.98733-.62349,1.12437,1.12437,0,0,1-.73358-.86494.4384.4384,0,0,1,.5258-.574,3.03412,3.03412,0,0,1,.84409.38483,6.34109,6.34109,0,0,1,.64.52506C34.84158,50.84864,34.8885,50.8403,35.0717,50.8637Z" transform="translate(-7.78107 -2.59425)"/><path class="cls-1" d="M19.54091,27.25486c-.07673-.72215-.1302-1.22472-.18348-1.72729a3.32829,3.32829,0,0,1,.37482-1.95674,2.007,2.007,0,0,1,1.37637-.95264,1.54235,1.54235,0,0,1,.048.51713,5.87612,5.87612,0,0,1-.29484.50928,3.19748,3.19748,0,0,0-.33735,2.2981c.15584.53166.26177,1.07958.44374,1.6015a1.23745,1.23745,0,0,1-.2583,1.496.96066.96066,0,0,1-.45562-.02214,6.6142,6.6142,0,0,1-2.35465-1.77351c-.119-.15756-.25435-.30489-.357-.47237-.18117-.29579-.15916-.63642.04067-.75589a.72355.72355,0,0,1,.79014.01423c.12426.078.19376.2388.30046.35023C18.90762,26.62479,19.14923,26.86122,19.54091,27.25486Z" transform="translate(-7.78107 -2.59425)"/><path class="cls-1" d="M24.59172,31.69266c.23056.16826.4219.24561.5076.387a1.44563,1.44563,0,0,1,.138.5684c.12608,1.06056.23749,2.12287.36569,3.18316a1.071,1.071,0,0,1-.59583,1.22452,7.06257,7.06257,0,0,0-1.83568-.62935c-.11375-.012-.25292-.28471-.28453-.45475a.41432.41432,0,0,1,.41722-.472c.31216-.0319.62691-.03846.96308-.05728C24.42532,34.2189,24.06873,32.96981,24.59172,31.69266Z" transform="translate(-7.78107 -2.59425)"/><path class="cls-1" d="M28.10722,42.28659c.09567-.78362-.15941-1.50766.13751-2.17794.335-.084.4632.11654.54073.34828a2.807,2.807,0,0,1,.05977.46893,7.72987,7.72987,0,0,0,.80462,2.587c.11185.2054.19273.4277.30338.67728l-.62323.72858a2.02888,2.02888,0,0,1-.46337-.20629c-.51344-.429-1.01444-.8731-1.51538-1.31687a1.24733,1.24733,0,0,1-.22577-.27036.54445.54445,0,0,1,.43718-.85825A3.21223,3.21223,0,0,1,28.10722,42.28659Z" transform="translate(-7.78107 -2.59425)"/><path class="cls-1" d="M28.74,12.01287a6.19162,6.19162,0,0,1-2.54178,1.70561,3.55289,3.55289,0,0,1-.80311.19678.54133.54133,0,0,1-.5482-.37657.48161.48161,0,0,1,.2808-.57979.7516.7516,0,0,1,.10554-.05448c1.01625-.33276,2.03162-.66839,3.05169-.989C28.37544,11.88692,28.49705,11.95733,28.74,12.01287Z" transform="translate(-7.78107 -2.59425)"/></svg>