<svg id="Layer_1" data-name="Layer 1" xmlns="http://www.w3.org/2000/svg" viewBox="0 0 75 67.7711"><defs><style>.cls-1{fill:#414042;}</style></defs><path class="cls-1" d="M4.29356,31.10992s-.181-5.67183-.27377-6.98364c-.35812-5.06669.36589-11.2545,4.51183-14.20155,2.43014-1.72741,5.17542.51645,6.54837,2.25409.84168,1.06524.99073,3.66868.99073,3.66868s6.31867-2.86156,8.696.8449a3.13424,3.13424,0,0,1,.55419,2.14927,3.78426,3.78426,0,0,1-.76574,1.578C20.29683,26.22778,4.29356,31.10992,4.29356,31.10992Z" transform="translate(-2.67589 -9.3037)"/><path class="cls-1" d="M14.55811,59.29507c-.3133,0-.6291.02518-.93937-.00547a2.12149,2.12149,0,0,1-1.40664-.77706.54518.54518,0,0,1,.05591-.82782c.43246-.40432.81161-.40285,1.15417.10772a.87348.87348,0,0,0,.6531.41057,4.2587,4.2587,0,0,0,2.71627-.5501,13.86322,13.86322,0,0,0,1.63224-1.137c.2205-.16052.40954-.36527.63425-.51865a.52352.52352,0,0,1,.65433.064.54659.54659,0,0,1,.11972.64584.80446.80446,0,0,1-.18414.29435,8.26326,8.26326,0,0,1-3.919,2.25489,7.49044,7.49044,0,0,1-1.16941.08786Z" transform="translate(-2.67589 -9.3037)"/><path class="cls-1" d="M24.09,61.88528c-.91125-.49336-1.87454-.99742-2.81922-1.53418a.49437.49437,0,0,1-.0146-.92324c.68723-.36767,1.39869-.69169,2.11035-1.01086a1.40777,1.40777,0,0,1,.57377-.08313c.54.005.7646.24187.80177.78405.03452.50391.05452,1.01168.13531,1.509C24.99005,61.32012,24.93744,61.44546,24.09,61.88528Z" transform="translate(-2.67589 -9.3037)"/><path class="cls-1" d="M7.69724,50.82691a.84808.84808,0,0,0,.03887.88772c.10131.21.25583.394.36032.60276a.52982.52982,0,0,1-.13886.73089.66207.66207,0,0,1-.94366-.11374,3.41814,3.41814,0,0,1-.3494-.86347c-.21031-.79226-.395-1.59144-.58335-2.38942a.73724.73724,0,0,1,.31983-.81344.67377.67377,0,0,1,.76922.10143,10.72434,10.72434,0,0,0,2.75013,1.56362,1.26818,1.26818,0,0,1,.77359.67258.43756.43756,0,0,1-.31313.626,1.06977,1.06977,0,0,1-.56351-.04944c-.357-.15838-.68809-.37426-1.034-.5587A1.8477,1.8477,0,0,0,7.69724,50.82691Z" transform="translate(-2.67589 -9.3037)"/><path class="cls-1" d="M77.1026,53.50452a10.972,10.972,0,0,1-.4339-3.13932,3.42639,3.42639,0,0,0-.08582-.819,5.07479,5.07479,0,0,1-.16688-2.77913c.11281-.343-.21506-.63383-.63676-.66117a2.29489,2.29489,0,0,0-.45082.05724,22.85331,22.85331,0,0,0-1.3608-2.18752c-.52946-.67268-1.20244-1.23041-1.78655-1.86255a51.95833,51.95833,0,0,1-4.72958-5.55084,3.67322,3.67322,0,0,0-1.73991-1.36589,20.08237,20.08237,0,0,1-3.676-2.07828,34.90211,34.90211,0,0,0-7.68821-3.50891c-1.52437-.50766-3.11015-.80057-4.63746-1.31772A9.37746,9.37746,0,0,0,47.2757,27.951c-1.41-.08342-2.83145-.02294-4.2343-.162a25.816,25.816,0,0,0-5.28777.05533c-2.76981.29282-5.54065.57943-8.31476.82694a15.56854,15.56854,0,0,0-5.97878,1.62689,9.92888,9.92888,0,0,1-.97159.42158,1.15092,1.15092,0,0,1-1.01649.10046.56115.56115,0,0,0-.442.02774,22.48664,22.48664,0,0,0-2.476,1.35527,22.05824,22.05824,0,0,0-5.91193,6.481c-.695,1.09276-1.31375,2.2346-2.02377,3.317a8.09467,8.09467,0,0,0-.971,2.00316c-.15419.48584-.294.97636-.45452,1.46005-.07022.21167-.176.41162-.29308.67985-.35162-.12091-.6412-.21543-.92709-.32-.44129-.16133-.873-.35246-1.32139-.49-.89906-.27584-1.81137-.50881-2.70925-.78822-.82763-.25759-1.32481.09856-1.26058.9357a12.5022,12.5022,0,0,1,.08169,1.28558,17.845,17.845,0,0,0,.2558,3.6359c.13764.77026.16811,1.55939.29816,2.33137a13.96036,13.96036,0,0,0,1.83284,5.54873c.64649.97957,1.33293,1.93282,2.08515,3.01878a2.34663,2.34663,0,0,0,.26211,1.54278,6.51869,6.51869,0,0,1,.522,1.68009,4.40647,4.40647,0,0,0,1.151,2.27126,25.11877,25.11877,0,0,1,1.95021,2.35286A4.94042,4.94042,0,0,0,13.41357,71.087c.61686.24861,1.24955.45781,1.87288.69065a20.11935,20.11935,0,0,0,3.33384.69249,1.44081,1.44081,0,0,0,.58314-.0455,11.28047,11.28047,0,0,1,3.1629-.197,3.69739,3.69739,0,0,0,3.25534-1.34859c.75038.12853,1.49663-.48275,2.32275.001-.1295.43688-.27722.837-.36212,1.25012a4.9379,4.9379,0,0,0-.11642,1.15918.65248.65248,0,0,0,.70582.63782c1.17544.00237,2.35109-.00246,3.52629-.02369a1.14071,1.14071,0,0,1,.96947.27455.88554.88554,0,0,0,1.26918.09251,1.85725,1.85725,0,0,1,1.43515-.3716c.28319.349.447.74667.72268.85237a8.40116,8.40116,0,0,0,2.25406.60372,16.145,16.145,0,0,1,3.214.64532,13.51285,13.51285,0,0,0,3.06756.66842c.38835.02219.76835.17083,1.15727.20727a20.85516,20.85516,0,0,0,2.81511.19189,27.791,27.791,0,0,0,4.68536-.36353c.99484-.21366,2.00125-.37628,2.99083-.61079,1.40964-.334,2.80657-.72133,4.21341-1.06762.41751-.10273.8563-.11842,1.27452-.2189.913-.21935,1.80918-.52252,2.73085-.68754a6.38432,6.38432,0,0,0,2.29717-.86594,46.52222,46.52222,0,0,0,6.167-4.30808,8.23324,8.23324,0,0,0,2.18763-2.88035c.56525-1.29329,1.11379-2.594,1.6567-3.89688a8.17405,8.17405,0,0,0,.42434-1.22327,8.60768,8.60768,0,0,0,.4428-2.29906A24.11815,24.11815,0,0,0,77.1026,53.50452Zm-54.10071,17.625c-3.28355.27173-6.37546.34522-9.29628-1.43154a10.6537,10.6537,0,0,1-3.2762-3.08869c-.52933-.7787-1.06273-3.52-1.57286-3.90057l4.11982,3.073a.78867.78867,0,0,1,.34607.41609c.10562.476-.60977,1.09706-.17847,1.32454a1.635,1.635,0,0,1,2.85532.41921c1.22657-.51247,2.61441-.09607,3.92655.11686a12.20116,12.20116,0,0,0,4.09337-.04858.19468.19468,0,0,0,.19912.09809c.15779-.01464.15959.27035.18145.4073a.84175.84175,0,0,0-.05233.13366,3.66827,3.66827,0,0,1-.73737-.08748c-.30769-.07116-.439.40243-.13062.47376a4.298,4.298,0,0,0,.87726.1049c.046.20558.11536.4103.15889.61238a1.83372,1.83372,0,0,1-.54341.15455c-.31094.034-.31438.52564,0,.4913a2.6018,2.6018,0,0,0,.5633-.13143.83128.83128,0,0,1-.032.1224C24.30124,70.94509,23.59133,71.08072,23.00189,71.12951Zm1.0146-4.09964a19.44463,19.44463,0,0,1-1.98835.211,11.61556,11.61556,0,0,1-4.173-.53058c-.09925-.025-.1759-.13977-.26043-.21057a16.83842,16.83842,0,0,1,2.7433-3.14589l-.424-.542c-1.52557.772-2.242,2.30482-3.41636,3.42392a1.87054,1.87054,0,0,1-1.26359-.61386,3.25251,3.25251,0,0,1,.38618-.44649c.70618-.56073,1.42307-1.108,2.13681-1.65916a.433.433,0,0,0,.184-.51016.517.517,0,0,0-.68273-.28095c-.48582.32761-.95831.67865-1.41038,1.05152-.539.44458-1.05106.92184-1.60123,1.40834l-1.09417-.93a2.58748,2.58748,0,0,1,.44517-.51233,15.3753,15.3753,0,0,1,3.2381-1.66715,3.23426,3.23426,0,0,1,1.73-.22061.68949.68949,0,0,0,.345.02215c.13233-.05077.32153-.15424.33841-.2589a.77649.77649,0,0,0-.12678-.51841.59979.59979,0,0,0-.407-.19537,3.52771,3.52771,0,0,0-1.73616.16686A18.56032,18.56032,0,0,0,13.8279,62.6515c-.48356.32855-1.01154.59178-1.52952.89039a5.125,5.125,0,0,1-1.80888-1.10573,19.09193,19.09193,0,0,1-3.44831-3.35757,11.96913,11.96913,0,0,1-2.16964-4.39321C4.381,52.45561,4.25244,50.18,3.90744,47.93277A3.68,3.68,0,0,1,4.08077,46.185c.12465-.03628.24386-.11482.33855-.0919a15.83876,15.83876,0,0,1,3.47955,1.05465c.8389.42066,1.73634.723,2.59042,1.11565a7.46243,7.46243,0,0,1,1.19979.72027.79086.79086,0,0,0,.978.02963,1.3794,1.3794,0,0,0,.27945-.21464,9.73622,9.73622,0,0,1,4.23263-2.43587c.85272-.29239,1.72476-.53151,2.56772-.84873a7.83388,7.83388,0,0,1,2.19453-.37736,10.9917,10.9917,0,0,0,1.16648-.11977,2.24417,2.24417,0,0,1,1.03684.04849,1.22918,1.22918,0,0,0,1.52056-1.05648,8.79436,8.79436,0,0,1,1.36112-3.84734,9.9398,9.9398,0,0,1,2.24882-2.44642c.22723.2864.43668.50812.59792.76061a23.35371,23.35371,0,0,1,2.13249,4.5788c.04049.11007.0451.23525.095.33971,1.1773,2.46528,1.26541,5.15563,1.64144,7.79065a20.46167,20.46167,0,0,1,.23758,4.10438c-.00905.1542-.0412.30707-.06879.50465a4.51317,4.51317,0,0,1-1.68372.3966,16.4681,16.4681,0,0,0-4.049,1.19832,6.95517,6.95517,0,0,0-1.30327.78784.8615.8615,0,0,0-.33576.46135.72776.72776,0,0,0,.11688.528.37658.37658,0,0,0,.52825.046c.4306-.26707.84832-.55662,1.28943-.80472a14.64374,14.64374,0,0,1,4.89545-1.59576,3.75442,3.75442,0,0,1,.52643-.00319l.05239.98047c-1.23583.41811-2.47218.62751-3.67958.94278-.37952.09911-.76352.18469-1.13578.30617a1.25867,1.25867,0,0,0-.49892.293.46722.46722,0,0,0-.10252.40588.503.503,0,0,0,.352.23148,1.2484,1.2484,0,0,0,.45443-.0817c1.18135-.2868,2.36173-.57746,3.54362-.86188.2166-.05215.4387-.08132.73934-.13581a5.56374,5.56374,0,0,1-1.13186,2.02035.77185.77185,0,0,1-.74832.241c-.74465-.03512-1.48892-.088-2.23393-.101a7.64753,7.64753,0,0,0-1.16622.09662c-.08755.012-.23626.16346-.22249.21434.03557.13128.12343.31183.23158.34734a3.22354,3.22354,0,0,0,.80152.13c.66492.04117,1.3313.05812,1.99641.09688a.98543.98543,0,0,1,.28742.10493c.14091.25945-.01778.4071-.144.5427a9.88028,9.88028,0,0,1-.91254.917A18.53734,18.53734,0,0,1,26.916,66.1222,12.56015,12.56015,0,0,1,24.01649,67.02987ZM75.84122,61.6408c-.50356,1.39875-1.17011,2.7381-1.7412,4.11347a7.35788,7.35788,0,0,1-2.07687,2.669,25.51043,25.51043,0,0,1-3.44354,2.45625,25.52934,25.52934,0,0,1-3.60693,1.97963,11.05454,11.05454,0,0,1-2.11746.661c-4.28179.84985-8.26145,2.24843-12.68746,2.38486a37.0252,37.0252,0,0,1-12.81694-1.88376.65643.65643,0,0,1-.36815-.22537c-.18877-.2948.15959-.63745.46786-.80334a12.88007,12.88007,0,0,1,7.04041-1.49024c1.32338.10134,2.63072.40843,3.958.41018,2.54726.00332,4.94706-1.10779,7.25011-2.19621l3.98046-1.88115a37.1399,37.1399,0,0,0,4.19859-2.20779A11.41908,11.41908,0,0,0,67.47473,62.202a6.48547,6.48547,0,0,0,.96509-4.78439c-.08825-.39379-.33783-.85878-.73938-.81855-.52084.05219-.54057.7934-.47639,1.31289.3387,2.74215-1.41747,5.43046-3.77163,6.87687a50.43259,50.43259,0,0,1-5.44195,2.37943c-2.80762,1.297-5.35734,3.41339-8.43657,3.70189a30.07062,30.07062,0,0,1-4.85635-.33764c-3.75884-.26032-6.67992,1.37252-10.089,2.42237a1.97214,1.97214,0,0,1-1.3821-.07017,3.227,3.227,0,0,0-1.49989-.16682c-.14706.00727-.29438.00966-.44153.01524a1.17229,1.17229,0,0,1,.65712-.261c.31519-.01169.31672-.503,0-.4913a2.19183,2.19183,0,0,0-1.42139.778q-.57429.01157-1.14866.01037a3.47884,3.47884,0,0,1-.6938-.149,1.94087,1.94087,0,0,1,1.04841-1.87981l.551-.03544c.314-.02018.31624-.51162,0-.4913l-.45.02894-.04273-.51046a3.949,3.949,0,0,1,.39912-.27987,6.76751,6.76751,0,0,1,4.11775-1.14785,3.25864,3.25864,0,0,0,2.5979-.79726,8.3265,8.3265,0,0,1,3.06276-1.70977,7.66766,7.66766,0,0,1,1.73241-.30514,2.15565,2.15565,0,0,0,2.137-1.53058,2.63816,2.63816,0,0,1,.20959-.34943c-.62186,1.0212,3.36314.98411,3.82758.73459.19423-.10436.39618-.36089.23471-.511a.36436.36436,0,0,0-.30764-.04736,5.15526,5.15526,0,0,1-1.47431.14407,1.15038,1.15038,0,0,1-1.04359-.90093l2.855-.04989c.28393-.005.67891-.14934.59539-.42074a.43327.43327,0,0,0-.3264-.23867c-.8294-.23374-1.77031-.06657-2.52183-.48821-.27862-.15631-.58472-.39676-.87913-.2727-.32211.13573-.446.65884-.794.6264.214-2.53138.52074-5.92739,2.43392-7.81552a12.01807,12.01807,0,0,0,1.03255-1.2801,3.51481,3.51481,0,0,1,1.90666-1.48053c.453-.11469.56636-.36769.47351-.6754-.1155-.38282-.408-.51644-.84708-.3364A4.81081,4.81081,0,0,0,46.96121,52.22a12.70191,12.70191,0,0,1-1.11478,1.36985,7.53781,7.53781,0,0,0-1.99633,4.17951,2.74541,2.74541,0,0,1-.10234.35685c-.282.16315-.57089.33032-.95858.55468l.62968.44689a.88771.88771,0,0,1,.028.22311c-.09063.70048-.18178,1.401-.28433,2.09977a10.9443,10.9443,0,0,1-.2252,1.275c-.37235,1.37389-.44387,1.51767-1.8392,1.67334a9.19429,9.19429,0,0,0-4.196,1.74356,6.53565,6.53565,0,0,1-2.87274.92071,2.94654,2.94654,0,0,1,.25707-.44677A4.9019,4.9019,0,0,0,35.45,64.08857a12.76642,12.76642,0,0,0,.079-3.28434.58013.58013,0,0,0-.61571-.58228c-.2491-.00134-.5042.18406-.49511.40449.01773.43049.07821.859.10417,1.28936.142,2.35374-.83605,3.75519-2.80065,4.96011q-1.83351,1.12455-3.66706,2.249a3.30469,3.30469,0,0,1-1.54709.61668,1.31651,1.31651,0,0,1-.43042-.05893,2.89343,2.89343,0,0,0,.90277-.39225c.26328-.17276.01742-.59836-.248-.42422a2.55351,2.55351,0,0,1-1.04143.39564.19773.19773,0,0,0-.15252.098.84877.84877,0,0,1-.2469-.53334c-.00519-.07847-.00231-.15878-.0009-.23857a2.494,2.494,0,0,0,.64831.00782c.30891-.04083.313-.53267,0-.49129a2.28172,2.28172,0,0,1-.48846.00929,2.24756,2.24756,0,0,1,.05386-.46269,12.419,12.419,0,0,0,4.98955-2.88473c1.074-1.03074,2.02356-2.29674,3.42123-2.809a3.23623,3.23623,0,0,1,2.88356-3.70291c-.39288-.1676-3.0492-1.53883-1.12224-1.69959.39025-.03255.78577-.012,1.17353-.05942a.43974.43974,0,0,0,.31086-.27309.44735.44735,0,0,0-.18729-.37867,1.80334,1.80334,0,0,0-.66424-.16c-.34476-.02492-.69263-.00654-1.11289-.00654-.037-.242-.08918-.46269-.10171-.68558-.055-.97921-.03124-1.968-.15974-2.93691-.30416-2.29394-.45306-4.61109-.9757-6.87378a4.66211,4.66211,0,0,0-.18865-.55608c-.57055-1.54485-1.13108-3.0936-1.722-4.63067a9.10454,9.10454,0,0,0-.60848-1.13737c-.42144-.75323-.82184-1.52-1.28033-2.25012-.36357-.579-.85681-.58536-1.37444-.12348-1.05972.94568-1.83782,2.13885-2.80866,3.16177-.33318.79246-.68022,1.57946-.99405,2.37949-.17131.43674-.28635.8955-.41565,1.30871a3.30752,3.30752,0,0,1-1.80867.582,9.55223,9.55223,0,0,1-1.40282.15134,8.5518,8.5518,0,0,0-2.97326.64532,27.69712,27.69712,0,0,0-3.9605,1.48723,7.12626,7.12626,0,0,0-1.56726,1.01829,1.11464,1.11464,0,0,1-1.40132.19135c-.44794-.23306-.887-.48315-1.30421-.71153A2.92355,2.92355,0,0,1,10.47,45.0391a15.769,15.769,0,0,1,1.89632-3.8915c.93606-1.34763,1.74788-2.78508,2.77852-4.06524a17.64334,17.64334,0,0,1,4.67076-4.42857,2.98094,2.98094,0,0,1,1.52935-.49325,5.64011,5.64011,0,0,0,1.69013-.4446,12.43558,12.43558,0,0,0,1.28594-.58409,14.29226,14.29226,0,0,1,5.20411-1.3559c4.81883-.36023,9.3776-1.33469,14.2715-.94a55.19939,55.19939,0,0,1,14.243,3.2339,6.70765,6.70765,0,0,1,1.12472.6328c1.24269.74826,2.48012,1.50535,3.724,2.25166a8.21994,8.21994,0,0,0,1.53415.85695,4.97523,4.97523,0,0,1,2.365,1.84655c.6239.80732,1.2347,1.62745,1.90217,2.39782.94979,1.09625,1.95632,2.14316,2.91859,3.22892a11.13075,11.13075,0,0,1,1.85929,2.39292c.3144.66615.18729,1.66293.93143,2.06835a2.22415,2.22415,0,0,1,.53.27849,1.02911,1.02911,0,0,1,.23285.58734C75.87085,52.81318,77.3258,57.51737,75.84122,61.6408Z" transform="translate(-2.67589 -9.3037)"/><path class="cls-1" d="M23.684,34.95369c-.41546.1264-.78939.22341-1.15149.35345-1.06613.38275-2.12754.77863-3.1908,1.16939-.44595.50584-1.32305.5711-1.4206,1.45394-.02811.25433-.52221.38276-.80978.29933a.526.526,0,0,1-.34978-.74359,1.09853,1.09853,0,0,1,.27015-.37732,9.52547,9.52547,0,0,1,1.634-1.13447,17.812,17.812,0,0,1,4.241-1.35334,1.60783,1.60783,0,0,1,.57549.007C23.55088,34.64143,23.5918,34.79726,23.684,34.95369Z" transform="translate(-2.67589 -9.3037)"/><path class="cls-1" d="M21.69257,37.98686a3.80886,3.80886,0,0,1-1.4772.76868,9.66849,9.66849,0,0,0-3.67785,2.40177,1.26786,1.26786,0,0,1-.26.22813A.42308.42308,0,0,1,15.741,41.355a.39444.39444,0,0,1-.09618-.52517,2.469,2.469,0,0,1,.51456-.62819A11.56665,11.56665,0,0,1,20.45262,37.893,1.46515,1.46515,0,0,1,21.69257,37.98686Z" transform="translate(-2.67589 -9.3037)"/><path class="cls-1" d="M32.70564,32.03617a4.75156,4.75156,0,0,1-.7188.24786q-2.18169.399-4.37018.76021a1.602,1.602,0,0,1-.67429-.06728.34991.34991,0,0,1-.04934-.57968,2.14263,2.14263,0,0,1,.64312-.25543,27.03326,27.03326,0,0,1,4.75552-.47933C32.484,31.6671,32.68576,31.704,32.70564,32.03617Z" transform="translate(-2.67589 -9.3037)"/><path class="cls-1" d="M28.31584,43.62537c-.1906.38952-.32656.61992-.4178.86689-.09462.25615-.13994.53-.21723.79314-.2838.96606-.53522,1.02416-1.345.292.35914-.93045.70606-1.87757,1.09027-2.80935.30623-.74268.89471-.83894,1.46581-.24988a5.7023,5.7023,0,0,1,.56223.74856,10.29848,10.29848,0,0,0,1.65558,2.12048.71016.71016,0,0,1,.22354.84666c-.08577.23279-.22471.46013-.47829.44991a.726.726,0,0,1-.46023-.2959c-.561-.75359-1.09637-1.52621-1.646-2.28828C28.65977,43.9764,28.54356,43.87294,28.31584,43.62537Z" transform="translate(-2.67589 -9.3037)"/><path class="cls-1" d="M26.01441,55.52483c-.50678-.1031-.97335-.169-1.42178-.2981a.63344.63344,0,0,1-.51473-.68965.66012.66012,0,0,1,.80514-.498.54019.54019,0,0,1,.114.02893c1.57976.59646,2.71761-.23246,3.79607-1.20019.37672-.33808.683-.75336,1.0415-1.11346a.452.452,0,0,1,.64-.01587.6148.6148,0,0,1,.29135.70543,1.21022,1.21022,0,0,1-.30015.49664A9.907,9.907,0,0,1,27.352,55.193,11.66567,11.66567,0,0,1,26.01441,55.52483Z" transform="translate(-2.67589 -9.3037)"/><path class="cls-1" d="M23.1774,65.177a.66572.66572,0,0,1-.68728-.54969.4587.4587,0,0,1,.211-.37912c.69324-.342,1.395-.66959,2.1085-.96685a2.28835,2.28835,0,0,1,1.38209.06985.45723.45723,0,0,1,.22642.74429.95215.95215,0,0,1-.36024.28459c-.85448.27284-1.71556.52507-2.57578.77961A1.623,1.623,0,0,1,23.1774,65.177Z" transform="translate(-2.67589 -9.3037)"/><path class="cls-1" d="M17.01181,50.07624a2.20219,2.20219,0,0,1-.57362-.03794.42142.42142,0,0,1-.2381-.65333,2.66871,2.66871,0,0,1,.64965-.6583,8.19009,8.19009,0,0,1,2.95861-1.04975,1.68964,1.68964,0,0,1,.34987-.02464c.22742.01318.47671-.00838.58686.26815.08485.21306-.09851.38773-.4821.52211-.80785.283-1.61314.57453-2.41078.88494a.97082.97082,0,0,0-.67265.60226A1.29353,1.29353,0,0,1,17.01181,50.07624Z" transform="translate(-2.67589 -9.3037)"/><path class="cls-1" d="M17.01181,50.07624a1.29353,1.29353,0,0,0,.16774-.1465,24.11956,24.11956,0,0,0,3.08446-1.0064,1.22335,1.22335,0,0,1,1.22691.00444.40848.40848,0,0,1,.16169.28067c.00418.09614-.08188.19866-.13679.29345a.17564.17564,0,0,1-.09435.06373c-1.21744.396-2.43446.79336-3.65424,1.182a.51919.51919,0,0,1-.63608-.1358A1.56918,1.56918,0,0,1,17.01181,50.07624Z" transform="translate(-2.67589 -9.3037)"/></svg>