<svg id="Layer_1" data-name="Layer 1" xmlns="http://www.w3.org/2000/svg" viewBox="0 0 61.59371 53.64522"><defs><style>.cls-1{fill:#414042;}</style></defs><path class="cls-1" d="M57.573,24.41228c-.14059.10532-.28227.21017-.42317.31641a9.99512,9.99512,0,0,1,2.02543,2.282.51791.51791,0,0,0,.262.26209.65554.65554,0,0,0,.47859-.01289.46692.46692,0,0,0,.13334-.424,1.60244,1.60244,0,0,0-.38218-.65648A10.12378,10.12378,0,0,0,57.573,24.41228Z" transform="translate(-8.76633 -16.32134)"/><path class="cls-1" d="M69.47548,16.32134a7.107,7.107,0,0,0-.60985.40518c-.80327.56235-1.54281,1.38978-2.37712,1.97962a14.92627,14.92627,0,0,1-2.34991,1.74875,5.807,5.807,0,0,1-2.41107.74622,5.73975,5.73975,0,0,1-2.5183.2054.51038.51038,0,0,0-.36307.04811.94979.94979,0,0,1-.86286.108c-.59808-.221-.954.09588-1.33965.48621a22.63449,22.63449,0,0,1-2.06507,1.92691c-1.987,1.56184-3.92605,3.18125-5.86866,4.79638a29.83455,29.83455,0,0,0-2.29864,2.06128c-2.45815,2.51758-5.0527,4.88818-7.66473,7.24175-.47753.43025-.94255.87755-1.38195,1.3464q-1.53753,1.6406-3.04181,3.3123a4.31785,4.31785,0,0,1-1.86073,1.2959,9.77556,9.77556,0,0,0-3.27913,1.73794,13.21637,13.21637,0,0,1-2.49146,1.57861,3.82726,3.82726,0,0,0-.74394.49059C24.72183,48.91126,23.51045,50.002,22.29,51.0824c-.82939.73418-1.671,1.4546-2.4976,2.1919a25.45244,25.45244,0,0,0-3.94548,3.65923,2.48147,2.48147,0,0,1-.47917.42783q-1.41028,1.12211-2.82711,2.23605a1.09276,1.09276,0,0,1-.434.25572.63428.63428,0,0,1-.44143-.13234.1451.1451,0,0,1-.04-.07156.25349.25349,0,0,1-.1691-.33957,7.26182,7.26182,0,0,1,2.87705-3.08478c.98714-.92573,1.98008-1.84512,2.96474-2.77338q.65469-.61724,1.2841-1.26121c1.10679-1.13246,2.2066-2.27178,3.31537-3.41472,1.02053.11917,1.01521.11328,1.7879-.58324a12.16788,12.16788,0,0,1,.99749-.80615c1.07357-.77939,2.16018-1.54079,3.23249-2.32186a1.1751,1.1751,0,0,0,.52967-.84463c.02059-.20294.05259-.40765.08674-.61677a2.21486,2.21486,0,0,0-.322-.75829c-.32254-.27889-.63706-.55087-.92465-.79958a2.36952,2.36952,0,0,0-1.63325.478c-.46864.30068-.95169.58229-1.399.9121a25.82447,25.82447,0,0,0-2.94854,2.2743c-1.15183,1.14146-2.13465,2.4524-3.20387,3.67849-.84334.96711-1.67388,1.949-2.57009,2.86561a46.51371,46.51371,0,0,1-4.33874,4.00662c-.62793.49722-1.14265,1.12067-1.72342,1.66948-.80648.76209-.85786.83092-.45669,1.86285.12424.31965.29771.62121.40773.945a3.62645,3.62645,0,0,1,.28016,1.1133,14.35786,14.35786,0,0,0,.30709,2.12067,3.7047,3.7047,0,0,0,1.026,2.02689,10.68522,10.68522,0,0,0,3.18027,2.57282,1.2003,1.2003,0,0,1,.43774.26448c.53968.67956,1.3944.7045,2.11337,1.131a9.45926,9.45926,0,0,1,2.78531-2.28545,1.61976,1.61976,0,0,0,.19752-.16428c1.47651-1.1694,2.90133-2.39764,4.48055-3.44358a61.48592,61.48592,0,0,0,5.774-4.302c.71913-.60832,1.51547-1.12522,2.2356-1.73243,2.09921-1.77,4.10363-3.64521,6.05684-5.57465.24132-.23837.43963-.52047.65693-.78311.24257-.29322.46358-.60766.73079-.87628.39269-.39479.84312-.7334,1.22507-1.13744,1.68055-1.77759,3.48933-3.41766,5.33275-5.02128.35524-.309.75488-.57151,1.08472-.90438A39.40492,39.40492,0,0,1,50.40825,41.043c.33157-.27149.6467-.56374.961-.85552.8177-.75911,1.63888-1.51472,2.44377-2.28727,1.297-1.24484,2.72081-2.3509,3.94934-3.6721a24.19045,24.19045,0,0,1,4.45757-3.67766,13.42753,13.42753,0,0,0,1.66785-1.399,1.64421,1.64421,0,0,0,.41713-.89719c.04844-.2124.07577-.43285.10393-.65382q.02127-.19918.05614-.39433l.00337-.0186a6.314,6.314,0,0,1,.78069-2.06151,23.0391,23.0391,0,0,1,1.4457-3.54046,15.4192,15.4192,0,0,1,3.48786-4.1614L70.2,17.40546a1.88337,1.88337,0,0,0,.16-.40882l-.0281-.09488A1.496,1.496,0,0,0,69.47548,16.32134ZM35.9883,49.31573a4.57469,4.57469,0,0,1,.40894,1.03753,2.20137,2.20137,0,0,1,.27452,1.46577.29344.29344,0,0,1-.05158.11182c.00621.03214.01024.059.018.0932-.77292.60076-1.53944,1.19414-2.30273,1.79163-.16727.13094-.32336.27617-.48408.41544-1.65,1.4295-3.26881,2.89723-4.95991,4.27637-1.2936,1.055-2.66308,2.01979-4.02711,2.98474-1.43279,1.01359-2.872,2.02307-4.35924,2.953-1.26837.793-2.60734,1.47366-3.92063,2.19388a1.70941,1.70941,0,0,1-.49882.05449A6.32456,6.32456,0,0,0,14.69112,64.348a7.72779,7.72779,0,0,0-2.35784-1.34055c.01871-.02112.03967-.03794.05866-.05857a.23672.23672,0,0,1-.00874-.2311.24852.24852,0,0,1,.07314-.30224,27.68825,27.68825,0,0,1,3.23471-2.54213.21981.21981,0,0,1,.02975-.04172c.35776-.307.72476-.60316,1.08577-.90645.65645-.55148,1.3575-1.05923,1.958-1.66626,2.53981-2.5673,5.42529-4.7299,8.17365-7.05282.3602-.30443.74609-.58133,1.08525-.90723a16.44371,16.44371,0,0,1,5.52464-3.32658c.19244.15809.38065.31771.55715.48553a.19015.19015,0,0,1,.129.05424A10.59207,10.59207,0,0,1,35.9883,49.31573Zm25.58777-22.602c.02669.11636.13878.21249.20854.31975.60578.931.61279,1.13395-.10922,1.87295a16.8795,16.8795,0,0,1-1.52633,1.37088c-2.2464,1.79862-4.55614,3.51675-6.79152,5.32929a81.20936,81.20936,0,0,0-6.22437,5.76416q-4.31071,4.30767-8.67129,8.55573c-.18166.17663-.38989.32595-.72094.59965-.13471-.40209-.21379-.64161-.29523-.88033a3.26717,3.26717,0,0,0-.261-.72247A10.345,10.345,0,0,1,36.179,47.46241a3.84072,3.84072,0,0,0-.94267-1.34083,5.77614,5.77614,0,0,1-.60351-.66245c-.45977-.60013-.38659-.66866.08362-1.29086.75305-.99636,1.72463-1.77519,2.54058-2.70652.42015-.47959.93455-.87626,1.4024-1.31463q.27891-.26133.54-.54153c2.57323-2.763,5.45061-5.18653,8.19635-7.76006a23.69575,23.69575,0,0,1,1.877-1.74871c2.21628-1.66369,4.46555-3.2835,6.71038-4.90893a.24417.24417,0,0,1,.05759-.12028,8.34957,8.34957,0,0,1,1.6681-1.37979.97564.97564,0,0,1,1.08367-.15886,2.7243,2.7243,0,0,1,1.07642.81712A5.68606,5.68606,0,0,1,61.57607,26.71372Zm3.14486-3.85019c.18739.42827-.12374.8354-.24491,1.27071-.11426.41046-.22063.82439-.362,1.22567a2.085,2.085,0,0,1-.84559,1.28875,13.00484,13.00484,0,0,1-.61187-1.48743q-.08139-.29976-.18813-.58163a3.15156,3.15156,0,0,0-1.59775-1.7951.2658.2658,0,0,1-.054-.49632c.01969-.00905.04124-.013.06109-.02164l-.00009-.00043.00152-.00006a3.26883,3.26883,0,0,1,1.27162-.26591,2.05486,2.05486,0,0,1,1.1353.08019,1.87,1.87,0,0,1,1.11937.264A.7731.7731,0,0,1,64.72093,22.86353Z" transform="translate(-8.76633 -16.32134)"/><path class="cls-1" d="M54.18488,27.07966c.15612-.14648.23966-.29268.32235-.29219a2.92956,2.92956,0,0,1,2.56467,1.40358.51907.51907,0,0,1,.09265.35778.76394.76394,0,0,1-.2469.39236c-.05505.04383-.22579-.03083-.32841-.08284a.382.382,0,0,1-.16049-.19058,2.33908,2.33908,0,0,0-1.50749-1.27859C54.69736,27.30331,54.47872,27.20373,54.18488,27.07966Z" transform="translate(-8.76633 -16.32134)"/><path class="cls-1" d="M31.53425,50.9299c.18946.36925-.05686.56126-.17329.75992a13.24583,13.24583,0,0,1-3.36774,3.65584c-.53334.41932-.66491.397-1.33907-.00488.03211-.06749.0639-.19332.09677-.19359A2.20292,2.20292,0,0,0,28.12,54.53414a13.74909,13.74909,0,0,0,2.40911-2.4736A8.678,8.678,0,0,1,31.53425,50.9299Z" transform="translate(-8.76633 -16.32134)"/><path class="cls-1" d="M32.48656,52.36138c.01891.23952.078.3868.02819.45925a6.17421,6.17421,0,0,1-.77266,1.00274c-.86323.822-1.75881,1.61011-2.64528,2.40755a.36967.36967,0,0,1-.22488.10284.56007.56007,0,0,1-.34659-.08992.39208.39208,0,0,1-.08743-.33.80413.80413,0,0,1,.24293-.43356A27.91537,27.91537,0,0,0,32.48656,52.36138Z" transform="translate(-8.76633 -16.32134)"/></svg>