<svg id="Layer_1" data-name="Layer 1" xmlns="http://www.w3.org/2000/svg" viewBox="0 0 69.61788 75"><defs><style>.cls-1{fill:#414042;}</style></defs><path class="cls-1" d="M59.0183,45.03364c-.01121-.2-.02543-.39973-.03953-.59888-.05486-.776.06313-1.52175.077-2.295.01136-.63155-.18188-1.235-.20745-1.86324a11.73463,11.73463,0,0,0-.16737-2.10026,1.60487,1.60487,0,0,1,.41356-1.3063,11.97442,11.97442,0,0,0,2.08273-4.61251,25.4215,25.4215,0,0,0,.49963-3.74659,6.11821,6.11821,0,0,0-.8754-3.62323.792.792,0,0,1-.09977-.13783.18465.18465,0,0,1-.1014-.29574c.00966-.015.01489-.03177.02392-.04705a2.1439,2.1439,0,0,1,.10152-.53558c.00015-.00469-.00053-.00851-.00039-.0132a7.10456,7.10456,0,0,0,.00509-2.31087c-.01545-.0259-.03074-.05181-.04524-.07777a.22981.22981,0,0,1-.03025-.02233c-.08123-.09228-.16-.18233-.24469-.26692-.29931.07072-.60087.13228-.90319.19092a.29.29,0,0,1-.15439.09748c-.53293.12877-1.07543.175-1.602.33408a1.71676,1.71676,0,0,1-1.0278.03026.24354.24354,0,0,1-.08928-.04453c-.30774-.00838-.61568-.0251-.92242-.04088a.26623.26623,0,0,1-.111-.028c-1.03571.02325-2.07285.1227-3.10813.10673a14.3361,14.3361,0,0,0-5.21015,1.09742,7.48017,7.48017,0,0,0-3.66341,2.74235,10.08868,10.08868,0,0,1-3.10877-.71344,5.96588,5.96588,0,0,0-1.79581-.28113c-.95815.00752-1.91678-.06784-2.87518-.06688a1.37,1.37,0,0,1-1.34107-.85438c-.05676-.11779-.1147-.235-.1693-.35359a5.45584,5.45584,0,0,0-1.92074-2.2686c-1.73008-1.17352-3.42827-2.40651-5.23453-3.45107a4.6321,4.6321,0,0,0-4.06463-.4422.29672.29672,0,0,1-.39775.0919c-1.03457-.68914-2.183-1.17866-3.22059-1.86127a3.10133,3.10133,0,0,0-.52862.28119c-.02466.01563-.045.03237-.06857.04833a7.57408,7.57408,0,0,0-.24559,2.52771.21473.21473,0,0,1,.03036.11372c-.00216.55283.03588,1.105.0142,1.65751.01585.12275.02514.25114.04353.37145a.59454.59454,0,0,0,.01324.17158,1.61746,1.61746,0,0,1-.59146.79652.24832.24832,0,0,1-.032.01893,1.78957,1.78957,0,0,0-.32969.62147c-.10406.37258-.17835.7548-.27375,1.12977-.02882.11324-.065.22328-.09563.33575-.01853.13584-.034.27216-.05687.40752A12.43206,12.43206,0,0,1,17.007,25.2911a6.00024,6.00024,0,0,0-.181,1.31046,17.92087,17.92087,0,0,0,.65263,4.98789c.04459.1946.08616.38975.12717.58508.02667.12683.12669.36079.08559.48805a.421.421,0,0,1-.07979.12976c-.62581.77616-1.42525,1.40925-2.00406,2.22371-.5153.72506-.93762,1.51-1.42208,2.25512a12.34613,12.34613,0,0,0-1.03278,2.38557c-.27333.70068-.51033,1.41879-.76252,2.12736a14.55825,14.55825,0,0,0-1.0633,3.56764,29.33121,29.33121,0,0,0-.01873,4.17682,19.86684,19.86684,0,0,0,1.46448,5.801,23.12273,23.12273,0,0,0,5.75561,8.62455c.18851.17909.36912.36624.54732.55555q.12879.13689.25674.2747c.063.06738.17422.1489.2058.23678a.28493.28493,0,0,1,.01329.07561,2.09476,2.09476,0,0,1-.41517,1.23087c-.35274.6015-.76182,1.17686-1.05111,1.80731a33.72848,33.72848,0,0,1-1.81619,3.56459c-.098.16043-.57211.79352-.40368,1.02094a3.31065,3.31065,0,0,0,1.21709,1.19486c.69349.27119,2.72944-.91213,3.41766-1.22988,1.41267-.652,2.39129-1.271,3.80232-1.9191.53942-.27355,1.096-.51346,1.77292-.828a27.52551,27.52551,0,0,0,11.128.84221,13.76056,13.76056,0,0,1,1.57447,2.27619c.36855.689.78664,1.3534,1.21142,2.01019.44821.693.95411,1.34936,1.39079,2.04919.422.67646.48291.72982,1.36514.63142.17189-.01917.35043.00654.519-.025a5.69789,5.69789,0,0,0,1.3576-.30766c.51687-.24117.43046-2.65063.70142-5.25066.04836-.46356.0266-1.02483.06068-1.49444q.061-.83817.1219-1.67629c.05271-.7237.78091-.78054,1.35361-1.02843a10.29165,10.29165,0,0,0,3.49615-2.83836,40.47438,40.47438,0,0,0,3.21512-3.87761,17.03021,17.03021,0,0,0,1.7188-3.00713c.68926-1.58854,1.08723-3.2885,1.83557-4.8541q.092-.19236.19068-.38135a11.96762,11.96762,0,0,0,1.0235-3.17164A18.44151,18.44151,0,0,0,59.0183,45.03364ZM45.78377,25.33906a6.13227,6.13227,0,0,1,.95122-.73834,8.77742,8.77742,0,0,1,2.03611-.86061,16.79374,16.79374,0,0,1,6.4419-.66447,4.70081,4.70081,0,0,1,.50951.12766,4.1935,4.1935,0,0,0-.3752,2.62921,1.82383,1.82383,0,0,0,1.4807,1.617c.192.04289.38771.07759.58427.10657.0962-.001.19261-.00471.28929-.014a3.31164,3.31164,0,0,0,2.03044-1.093c.003-.02594.0105-.05134.01125-.07765a.29843.29843,0,0,1,.48261-.20514c.15268.0357.26221.17662.17.3214a11.56029,11.56029,0,0,1-.25956,3.24787,9.70127,9.70127,0,0,1-1.73279,5.15949c-.314.41155-.72065,1.07-1.26664,1.13988a3.67671,3.67671,0,0,0-.88892.11388c-.333.04263-.66643.09544-1.00051.12818a4.2407,4.2407,0,0,1-1.75933-.30448c-2.46336-.82987-4.795-2.07678-6.0935-4.42643a14.80442,14.80442,0,0,1-1.10509-2.42686,27.62689,27.62689,0,0,0-.94234-2.62119,1.34959,1.34959,0,0,1-.136-.4088C45.17513,25.74038,45.55474,25.54485,45.78377,25.33906Zm-9.65529.54288c.95719-.01793,1.91411-.05,2.87126-.06429a2.07985,2.07985,0,0,1,.6447.07159q2.04756.64335,4.08616,1.31555c.38519.12613.527.414.4714.89576-.84039.16756-1.55471-.39041-2.35173-.45017-.77853-.05829-1.5449-.26452-2.32049-.3798-.819-.12177-1.64281-.2102-2.46382-.31812a6.67553,6.67553,0,0,1-2.41533-.423A2.00052,2.00052,0,0,1,36.12848,25.88194Zm-2.2802,2.06612c2.47032.15137,4.81574.284,7.14734.62316a11.91927,11.91927,0,0,1,2.95455.96456c.30725.13078.62673.23293,1.03606.38321.22931.50845.52019,1.09268.76007,1.69715A8.38274,8.38274,0,0,0,49.325,35.65776a25.20473,25.20473,0,0,0,2.7976,1.41545,10.50558,10.50558,0,0,0,1.48387.42343A9.28252,9.28252,0,0,1,54.685,42.3008a41.68485,41.68485,0,0,1-1.028,6.82953,15.06656,15.06656,0,0,1-.5549,1.60183c-.86594,2.04391-1.4812,4.19177-2.54528,6.15339-.49837.91872-.96568,1.8566-1.50732,2.74923a13.40067,13.40067,0,0,1-5.49405,4.89075A21.72873,21.72873,0,0,1,40.44542,65.882a17.68019,17.68019,0,0,1-7.06164,1.00948c-.21705-.01759-.43357-.06949-.6496-.06581a9.07482,9.07482,0,0,1-6.48973-2.60582c-.86416-.79534-1.74873-1.57307-2.66952-2.30133a18.704,18.704,0,0,1-4.59812-5.95141,17.98636,17.98636,0,0,1-1.84622-5.81675,7.50039,7.50039,0,0,0-.19037-.75157,6.48737,6.48737,0,0,1-.27118-3.0913,3.52407,3.52407,0,0,0,.08632-.91,7.47734,7.47734,0,0,1,.40281-2.56788,27.33868,27.33868,0,0,1,2.30809-5.38514c.22927-.41974.50482-.81823.69567-1.25426a9.90931,9.90931,0,0,1,2.1375-2.44244,1.05781,1.05781,0,0,1,.46927-.20517c1.45634-.45045,2.91286-.90068,4.37236-1.34093a14.93853,14.93853,0,0,0,5.18233-2.96944C32.82519,28.81713,33.32,28.39343,33.84828,27.94806ZM18.3434,25.72982c.1126-.64057.13371-1.29687.21539-1.94353a6.72182,6.72182,0,0,1,.18547-.88472c.269-1.00941.3475-1.06385,1.41624-1.10056.21723-.00746.43378-.05974.65038-.058a1.11315,1.11315,0,0,0,1.11968-.75159,17.573,17.573,0,0,1,1.812-2.73479,6.77646,6.77646,0,0,1,2.58616.47605,14.04465,14.04465,0,0,1,2.4112,1.47491q.8828.59127,1.76429,1.18449a12.70781,12.70781,0,0,1,1.36447.93126,4.6023,4.6023,0,0,1,1.13312,1.5148,2.76969,2.76969,0,0,1,.31363,1.16839,2.97554,2.97554,0,0,1-.56,1.43763,8.66532,8.66532,0,0,1-.78825,1.13057,6.44148,6.44148,0,0,1-2.17157,1.71058c-.65468.31249-1.2489.77753-1.89622,1.12215a10.12044,10.12044,0,0,1-2.22679.74235q-1.1709.3045-2.34158.60914a11.38354,11.38354,0,0,1-2.22289.50539c-.24311.0124-.6079-.04051-.71885-.2015a2.19331,2.19331,0,0,0-1.182-.76122.94044.94044,0,0,1-.61332-.77406A12.20839,12.20839,0,0,1,18.3434,25.72982Zm1.98876,45.54793c-.21678.05892-.391-.2268-.37675-.38206-.01832-.04.97011-1.49021.97515-1.50248a16.59144,16.59144,0,0,1,1.44435-1.70416c.17619.05824,1.68774,1.52947,1.73909,1.381A27.48968,27.48968,0,0,1,20.33216,71.27775Zm23.30962,4.75881a11.87486,11.87486,0,0,1-2.183-6.331c.533-.11191,1.72932-.46742,2.2638-.57956a16.135,16.135,0,0,0,.04694,2.40792c.09851.81621.26218,2.31361.33538,3.25273C44.192,75.90527,44.00461,76.07116,43.64178,76.03656ZM57.57356,47.89714a21.31825,21.31825,0,0,1-1.8605,6.09964c-.45592,1.0828-.8812,2.17908-1.30043,3.27678a16.68415,16.68415,0,0,1-2.27932,3.95072c-.8034,1.0836-1.69958,2.09919-2.5679,3.13385a10.623,10.623,0,0,1-4.49057,3.04028c-1.55737.59794-3.218.7695-4.7836,1.31565-.69419.24222-1.42455.38186-2.14053.56006a18.42685,18.42685,0,0,1-3.88254.528,22.77752,22.77752,0,0,1-3.89614-.23179,13.81347,13.81347,0,0,1-3.94446-.99788,12.99029,12.99029,0,0,1-1.23138-.7671,9.73013,9.73013,0,0,1-1.24875-.84877c-1.02375-.87757-2.09805-1.69407-3.12073-2.57288-.28719-.24689-.56808-.50038-.84633-.75724-.32581-.30068-.6394-.61616-.94646-.93761a12.1095,12.1095,0,0,1-2.47789-2.7252c-.24538-.38247-.46664-.7797-.68057-1.18051-.19908-.37289-.45485-.7-.64482-1.07773a11.13626,11.13626,0,0,1-.74835-1.75773c-.00867-.02862-.01491-.05819-.023-.087-.28659-.64621-.448-1.33714-.69978-1.9975a.23225.23225,0,0,1-.01366-.11452,6.09722,6.09722,0,0,1-.32952-1.08432c-.22985-1.14767-.50221-2.28848-.68638-3.44347a15.295,15.295,0,0,1,.00139-4.03871,12.6625,12.6625,0,0,1,.70079-2.64036c.44186-1.30916.89427-2.61625,1.43082-3.89016a14.57305,14.57305,0,0,1,2.1028-3.22982q.51024-.644,1.06849-1.24767a1.51337,1.51337,0,0,1,1.98255-.3916c-.00241.10441.02678.2056-.01078.26344a47.924,47.924,0,0,0-3.17084,6.00453,15.60868,15.60868,0,0,0-1.40441,5.1349c-.00394.04319.00757.08825.00071.13067a10.74152,10.74152,0,0,0,.333,4.90179c.3131,1.04052.45842,2.13094.75878,3.17605a13.6302,13.6302,0,0,0,.92109,2.43938,24.11654,24.11654,0,0,0,3.29161,5.155,30.02776,30.02776,0,0,0,4.16762,3.9202c.3527.2721.6967.55539,1.03894.84041a7.82623,7.82623,0,0,0,.97883.77563,12.44476,12.44476,0,0,0,1.746.77549,15.02675,15.02675,0,0,0,1.86669.6239,8.86184,8.86184,0,0,0,2.2411.28561,33.812,33.812,0,0,0,6.73215-.76985,11.52436,11.52436,0,0,0,1.751-.50949,25.3855,25.3855,0,0,0,4.737-2.48711A13.96985,13.96985,0,0,0,50.914,58.7938c.50235-1.01426,1.03007-2.01585,1.54387-3.02445a5.434,5.434,0,0,0,.276-.59034c.70215-1.92,1.4426-3.82755,2.07785-5.76952a16.4948,16.4948,0,0,0,.60627-2.93926c.21268-1.59343.32426-3.2.51677-4.79633a5.77476,5.77476,0,0,0-.45813-3.06028,6.53993,6.53993,0,0,1-.24394-.84132c.49158-.367.99123-.16452,1.434-.28281A3.15558,3.15558,0,0,1,57.67134,39.72a22.7931,22.7931,0,0,1,.23245,2.72485c.03429,1.21643.03163,2.43643-.02273,3.65189C57.85393,46.70017,57.63474,47.29253,57.57356,47.89714Z" transform="translate(-5.46501 -2.78572)"/><path class="cls-1" d="M70.72,12.30709c-1.1208.292-1.14507.26822-1.81995.95634-1.2457,1.27023-2.4603,2.571-3.68661,3.86029a4.15584,4.15584,0,0,1-.34274.38126.61658.61658,0,0,1-.82481-.09826.50128.50128,0,0,1-.02511-.70573c.16788-.199.33336-.40166.51762-.58487,1.23148-1.22441,2.46132-2.45059,3.7069-3.66059a6.76887,6.76887,0,0,1,1.01866-.80383c.24759-.16148.57073-.3413.84955-.13639A3.9305,3.9305,0,0,1,70.72,12.30709Z" transform="translate(-5.46501 -2.78572)"/><path class="cls-1" d="M54.66118,14.85317c.1957-.82712.38954-1.63024.57529-2.43522.24483-1.06115.48336-2.12376.72435-3.18581.00969-.04246.01505-.086.02621-.128a.68425.68425,0,0,1,.74105-.57847.6728.6728,0,0,1,.44377.82955c-.1924.80383-.42269,1.59867-.6098,2.40364-.26611,1.14463-.50743,2.295-.7594,3.44293a4.73029,4.73029,0,0,1-.11578.507.54705.54705,0,0,1-.64727.30175.52892.52892,0,0,1-.47087-.53748A4.357,4.357,0,0,1,54.66118,14.85317Z" transform="translate(-5.46501 -2.78572)"/><path class="cls-1" d="M60.63166,14.22154c.203-.4158.36724-.81812.58636-1.1879q.864-1.45833,1.77195-2.89045a7.54649,7.54649,0,0,1,.86735-1.12969.63355.63355,0,0,1,.83638-.11105.8181.8181,0,0,1,.42136.87855c-.02622.141-.21842.372-.30949.36047-.63959-.08085-.81051.407-1.0447.80956-.656,1.12765-1.29983,2.26236-1.94945,3.39373a2.616,2.616,0,0,1-.20594.3294.532.532,0,0,1-.70148.11268A2.09681,2.09681,0,0,1,60.63166,14.22154Z" transform="translate(-5.46501 -2.78572)"/><path class="cls-1" d="M66.48,22.36246a8.29494,8.29494,0,0,1,.81648-.6677.752.752,0,0,1,.58862-.13066,1.53136,1.53136,0,0,0,1.13739-.04056c.84578-.19693,1.69416-.38814,2.52844-.62709a2.15286,2.15286,0,0,1,1.52143.0881.5139.5139,0,0,1,.24755.40423.45807.45807,0,0,1-.32626.30941,13.33077,13.33077,0,0,0-3.139.80772,26.11193,26.11193,0,0,1-2.6659.57468C66.80353,23.1469,66.51812,22.93782,66.48,22.36246Z" transform="translate(-5.46501 -2.78572)"/><path class="cls-1" d="M28.38829,13.496a3.745,3.745,0,0,1,.60907.15259,5.89081,5.89081,0,0,0,1.50929-2.65177,11.50775,11.50775,0,0,1,.49691-1.47079.50076.50076,0,0,1,.40278-.22221.36913.36913,0,0,1,.326.46927,8.18015,8.18015,0,0,1-1.81463,4.5152c-.34048.36763-.73479.91412-1.29877.60817C28.10376,14.617,28.16009,14.02463,28.38829,13.496Z" transform="translate(-5.46501 -2.78572)"/><path class="cls-1" d="M9.57831,13.434c.46461.19152,1.06694.42063,1.65.69132a1.19971,1.19971,0,0,1,.46509.436.54139.54139,0,0,1,.05428.4682.45277.45277,0,0,1-.43755.10244,4.60607,4.60607,0,0,0-2.23535-.611c-.558-.04343-1.12314.01194-1.685.00913a7.14178,7.14178,0,0,1-.9066-.055.58452.58452,0,0,1-.56349-.59551.6593.6593,0,0,1,.63861-.53475.8662.8662,0,0,1,.12973-.00675C7.59675,13.36773,8.50552,13.3982,9.57831,13.434Z" transform="translate(-5.46501 -2.78572)"/><path class="cls-1" d="M18.92484,2.78572a6.45343,6.45343,0,0,1,.7639,1.25655c.37541,1.15705.6732,2.33986.97656,3.51891a.53281.53281,0,0,1-.1566.4486c-.19893.159-.42532.03866-.56873-.13069A2.104,2.104,0,0,1,19.61124,7.32a8.02037,8.02037,0,0,1-.441-1.22785,6.38607,6.38607,0,0,0-.93945-2.27473C17.89229,3.32787,18.039,3.1137,18.92484,2.78572Z" transform="translate(-5.46501 -2.78572)"/><path class="cls-1" d="M26.63169,5.82287c.04046.11558.08814.22919.12024.34707a5.72986,5.72986,0,0,1,.07253,2.70714,26.438,26.438,0,0,1-.79748,2.61349.81125.81125,0,0,1-.23186.30242.465.465,0,0,1-.72572-.24518,1.64863,1.64863,0,0,1,.04531-.634A23.37427,23.37427,0,0,0,26.08588,6.733a4.99259,4.99259,0,0,1,.24092-.83947Z" transform="translate(-5.46501 -2.78572)"/><path class="cls-1" d="M75.08289,28.60509c-.337.33353-.43325.50185-.57385.55691a6.38094,6.38094,0,0,1-5.18665-.12759.52021.52021,0,0,1-.34127-.6238.66645.66645,0,0,1,.70429-.462,5.38784,5.38784,0,0,1,.73074.27848,5.40313,5.40313,0,0,0,2.8027.43641C73.73044,28.60915,74.24978,28.628,75.08289,28.60509Z" transform="translate(-5.46501 -2.78572)"/><path class="cls-1" d="M10.95544,19.66337c-.30973.10249-.50594.16712-.702.23236a7.76393,7.76393,0,0,0-2.36173,1.01082,2.86351,2.86351,0,0,1-1.05334.48666,2.42957,2.42957,0,0,1-1.01-.03854.5561.5561,0,0,1-.32759-.73743c.09387-.2596.26505-.49327.569-.37275A1.52235,1.52235,0,0,0,7.3,20.0385c.59894-.24785,1.19165-.513,1.80011-.73483a1.88068,1.88068,0,0,1,1.39664-.022A2.40883,2.40883,0,0,1,10.95544,19.66337Z" transform="translate(-5.46501 -2.78572)"/><path class="cls-1" d="M15.15212,10.43688c-.499-.43038-.93236-.78792-1.34708-1.166-.54409-.496-1.07444-1.007-1.60878-1.51355a.60681.60681,0,0,1-.09765-.91405.548.548,0,0,1,.8074-.08859,9.74891,9.74891,0,0,1,2.56488,2.90874C15.56693,9.83451,15.53928,9.8829,15.15212,10.43688Z" transform="translate(-5.46501 -2.78572)"/><path class="cls-1" d="M38.04945,49.17809a1.1326,1.1326,0,0,0-.0865-.17262,3.06037,3.06037,0,0,0-.44236-.48682c-1.09165-1.13351.23664-2.312.83558-3.30373a9.93248,9.93248,0,0,0,1.03295-2.4869,25.37034,25.37034,0,0,0,.83-5.475c.06-1.18392.09691-2.36845.16542-3.55358.05718-1.2643-.10377-2.52741.0045-3.78636a.69377.69377,0,0,0-.22005-.06837l-.04058.00928c-.05453.01226-.1812.34547-.21161.40327q-.12479.23715-.24994.47413-.23943.45377-.47787.908c-.31656.60509-.62876,1.21252-.92725,1.82676a25.32216,25.32216,0,0,0-1.58207,3.76261c-.39261,1.31353-.60509,2.67064-.86886,4.01349a14.58222,14.58222,0,0,0-.5732,3.40885,13.35963,13.35963,0,0,0,.07651,1.43733,2.28542,2.28542,0,0,1,.0782,1.17608.48612.48612,0,0,1-.92948-.11475,1.08886,1.08886,0,0,0-.04409-.23769c-.02033-.04684-.05364-.087-.07562-.13307a1.40907,1.40907,0,0,1-.0247-.53984,3.98106,3.98106,0,0,0-.06636-.61,7.27239,7.27239,0,0,0-.34239-1.15963,13.925,13.925,0,0,0-1.47013-3.143c-.6978-1.00856-1.40865-2.01673-2.01436-3.0874-.48048-.84932-.88654-1.73775-1.28514-2.62759-.19974-.4459-.39748-.89273-.60209-1.33642-.08008-.17367-.41135-1.08994-.58374-.5006a.94194.94194,0,0,0-.01289.32575c.02529.3896.0005.77993.00976,1.16986a6.96463,6.96463,0,0,0,.16622,1.17347c.16976.87229.39263,1.73374.64651,2.58514.31406,1.05355.701,2.08009,1.04449,3.12347a15.62057,15.62057,0,0,0,.64647,1.68063c.25538.55193.58524,1.05083.89169,1.57367a6.101,6.101,0,0,0,2.21865,2.34312c.348.21384.43147.20121.4801.61406a9.02271,9.02271,0,0,1-.20018,1.81571,2.81316,2.81316,0,0,0,.33863,1.79271,1.81371,1.81371,0,0,0,1.46281.50882,5.53318,5.53318,0,0,0,.775-.062,2.39956,2.39956,0,0,0,.98878-.794A2.97518,2.97518,0,0,0,38.04945,49.17809Z" transform="translate(-5.46501 -2.78572)"/><path class="cls-1" d="M19.86934,27.39185c.74265-.665,1.92436-.273,2.86542-.36448a2.61837,2.61837,0,0,1,1.01707.11061c.38874.123.438.84388.28957.90136-.24014.093-1.7941.10209-2.74068.37429-.29409.02978-.9622.31438-1.21322.0678C19.82053,28.21921,19.48323,27.73757,19.86934,27.39185Z" transform="translate(-5.46501 -2.78572)"/><path class="cls-1" d="M24.76087,29.16119c.047.823-.35148.45379-1.60754.56036a10.81734,10.81734,0,0,0-1.7103.45926c-.43819.11877-.70751-.15256-.82334-.58847a.525.525,0,0,1,.4166-.57728,6.78035,6.78035,0,0,0,1.45932-.1453,4.63916,4.63916,0,0,1,1.84892.02806C24.42739,28.90052,24.746,28.90116,24.76087,29.16119Z" transform="translate(-5.46501 -2.78572)"/><path class="cls-1" d="M55.474,34.88614a4.74722,4.74722,0,0,1-1.85249-.917A5.82752,5.82752,0,0,1,51.7881,32.1596c-.05249-.09211-.04982-.31.00988-.35189.12168-.08541.35118-.17349.44581-.11474a8.55608,8.55608,0,0,1,1.3718.97264,3.218,3.218,0,0,0,3.46591.80342.68225.68225,0,0,1,.72645.11786.59128.59128,0,0,1,.23481.68667.74357.74357,0,0,1-.48105.35377A6.23385,6.23385,0,0,1,55.474,34.88614Z" transform="translate(-5.46501 -2.78572)"/><path class="cls-1" d="M56.121,33.106a7.752,7.752,0,0,1-2.288-.98974,1.844,1.844,0,0,1-1.02561-1.11151.58443.58443,0,0,1,.1366-.4403c.05128-.06441.236-.04236.35576-.02541a.40212.40212,0,0,1,.21681.13007,5.06683,5.06683,0,0,0,3.15046,1.32961c.16742.02954.3787-.01521.49743.07238a.88629.88629,0,0,1,.32963.5.47336.47336,0,0,1-.25981.38774A2.94746,2.94746,0,0,1,56.121,33.106Z" transform="translate(-5.46501 -2.78572)"/><path class="cls-1" d="M54.04259,29.86752a1.00235,1.00235,0,0,1,.746.12756,6.09173,6.09173,0,0,0,2.79024.5354,1.2761,1.2761,0,0,1,.38206.06139.46354.46354,0,0,1,.27122.62966c-.17083.24846-.34787.52986-.71275.4822A10.67182,10.67182,0,0,1,54.176,30.385C53.97928,30.27428,53.88866,29.934,54.04259,29.86752Z" transform="translate(-5.46501 -2.78572)"/></svg>